<?xml version="1.0" encoding="UTF-8"?>
<svg viewBox="0 0 3553.3 2820" xmlns="http://www.w3.org/2000/svg">
    <defs>
        <style>@font-face {
            font-family: "Virgil";
            src: url(https://excalidraw.com/Virgil.woff2)
            }

            @font-face {
            font-family: "Cascadia";
            src: url(https://excalidraw.com/Cascadia.woff2)
            }
        </style>
    </defs>
    <path d="M0 0h3553.333v2820H0z" fill="#fff"/>
    <path d="M136.011 934.189c125.04.84 247.25 2.62 345.85.36m-346.28.28c126.03.75 252.77.83 346.13.46m.2-2.08c1.41 16.59-1.92 29.76 1.62 59.62m-1.93-58.2c-.32 15.71.91 31.11-.43 59.77m-.11 1.25c-7.5 6.42-16.97 17.09-34.17 34.75m35.28-35.63c-9.89 9.51-19.76 18.55-35.15 34.02m1.75-1.68c-.96-12.37-3.01-23.41-3.91-32.48m1.68 35.32c-.89-12.4.11-25.1-1.65-36.73m2.23-1.2c8.13 1.26 14.67.05 31.85.75m-34.08.53c12.7.47 25.57-.56 34.9-.11m-1.05 1.32c-6.82 9.52-18.23 19.17-31.97 34.9m33.88-36.52c-11.83 10.93-23.4 23.95-34.49 37.04m.03 1.61c-67.25.99-133.21.09-309.65-3.61m309.94 2.51c-101.62-2.81-200.77-3.02-309.34-1.6m-2.07-.39c1.24-25.01 2.77-48.24 1.56-93.49m.1 93.11c-.61-30.52-.01-62.26-.92-93.12"
          fill="none" stroke="#000" stroke-linecap="round" stroke-width="2"/>
    <g fill="#343a40" font-family="Virgil, Segoe UI Emoji" font-size="38.973">
        <text transform="translate(1402.2 502.17)" y="35.07" style="white-space:pre">- Werden die Formatierungsregeln
            angewendet?
        </text>
        <text transform="translate(1402.2 502.17)" y="85.139" style="white-space:pre">- Werden Namens-Konventionen
            eingehalten?
        </text>
        <text transform="translate(1402.2 502.17)" y="135.209" style="white-space:pre">- Wird as DRY Prinzip
            eingehalten?
        </text>
        <text transform="translate(1402.2 502.17)" y="185.279" style="white-space:pre">- Ist der Code lesbar
            (Methodenlängen usw.)
        </text>
    </g>
    <g fill="#343a40" font-family="Virgil, Segoe UI Emoji" font-size="38.973">
        <text transform="translate(1894.3 874.4)" y="35.167" style="white-space:pre">- Sind alle Tests erfolgreich?
        </text>
        <text transform="translate(1894.3 874.4)" y="85.333" style="white-space:pre">- Sind neue Funktionen vernünftig
            getestet?
        </text>
        <text transform="translate(1894.3 874.4)" y="135.5" style="white-space:pre">- Werden Eckfälle getestet?</text>
        <text transform="translate(1894.3 874.4)" y="185.667" style="white-space:pre">- Werden Unit-Tests, wo möglich,
            verwendet?
        </text>
        <text transform="translate(1894.3 874.4)" y="235.833" style="white-space:pre">- Werden Integration-Tests, wo
            nötig, verwendet?
        </text>
        <text transform="translate(1894.3 874.4)" y="286" style="white-space:pre">- Gibt es Tests für
            Nichtfunktionale-Anforderungen, Leistung, Antwortverhalten, ...?
        </text>
    </g>
    <g fill="#343a40" font-family="Virgil, Segoe UI Emoji" font-size="38.973">
        <text transform="translate(2085.5 1325.3)" y="35.2" style="white-space:pre">- Sind neue Funktionen angemessen
            dokumentiert?
        </text>
        <text transform="translate(2085.5 1325.3)" y="85.4" style="white-space:pre">- Sind die relevanten Arten von
            Dokumenten vorhanden:
        </text>
        <text transform="translate(2151 1325.3)" y="135.6" style="white-space:pre">README, API docs, Anleitungen,
            Referenze Docs, etc.?
        </text>
        <text transform="translate(2085.5 1325.3)" y="185.8" style="white-space:pre">- Sind Dokumente verständlich, gibt
            es keine signifikanten
        </text>
        <text transform="translate(2110 1325.3)" y="236" style="white-space:pre">Tipp- und Grammatikfehler?</text>
    </g>
    <g fill="#343a40" font-family="Virgil, Segoe UI Emoji" font-size="38.973">
        <text transform="translate(2402.2 1724.5)" y="35.2" style="white-space:pre">- Werden die Anforderungen
            erfüllt?
        </text>
        <text transform="translate(2402.2 1724.5)" y="85.4" style="white-space:pre">- Ist es logisch korrekt??</text>
        <text transform="translate(2402.2 1724.5)" y="135.6" style="white-space:pre">- Gibt es keine unnötige
            Komplexität??
        </text>
        <text transform="translate(2402.2 1724.5)" y="185.8" style="white-space:pre">- Ist es robust (ohne
            Parallelitätsprobleme, korrekte Fehler-Handling, ...)?
        </text>
        <text transform="translate(2402.2 1675.5)" y="286.2" style="white-space:pre">- Ist es performant?</text>
        <text transform="translate(2402.2 1678.5)" y="336.4" style="white-space:pre">- Ist es sicher? (keine SQL
            -Injektionen usw.)
        </text>
        <text transform="translate(2402.2 1684.5)" y="386.6" style="white-space:pre">- Wird Überwacht (Metriken,
            Protokollierung, Logging, ...)?
        </text>
        <text transform="translate(2402.2 1688.5)" y="436.8" style="white-space:pre">- Fallen neu hinzugefügte
            Abhängigkeiten ins Gewicht? (Lizenzkosten)
        </text>
    </g>
    <g fill="#343a40" font-family="Virgil, Segoe UI Emoji" font-size="38.973">
        <text transform="translate(1791.2 2365)" y="34.954" style="white-space:pre">- API so klein wie möglich, so groß
            wie nötig?
        </text>
        <text transform="translate(1791.2 2365)" y="84.907" style="white-space:pre">- Gibt es eine Möglichkeit, mehr wie
            eine Sache zu tun? (SRP Prinzip)
        </text>
        <text transform="translate(1791.2 2365)" y="134.861" style="white-space:pre">- Ist es konsistent, folgt es dem
            Prinzip der geringsten Überraschungen?
        </text>
        <text transform="translate(1791.2 2365)" y="184.815" style="white-space:pre">- Saubere Trennung von
            API/Internas, ohne dass Internas in der API eintritt?
        </text>
        <text transform="translate(1791.2 2365)" y="234.768" style="white-space:pre">- Gibt es keine Code Brüche an
            benutzergerichteten Teilen?
        </text>
        <text transform="translate(1820.2 2365)" y="284.722" style="white-space:pre">(API Klassen, Konfiguration,
            Metriken, Protokollformate, etc.)?
        </text>
        <text transform="translate(1791.2 2365)" y="334.676" style="white-space:pre">- Ist eine neue API allgemein
            nützlich und nicht übermäßig spezifisch??
        </text>
    </g>
    <g fill="none" fill-rule="evenodd" stroke-linecap="round">
        <path d="m930.75 1911.1s0 0 0 0 0 0 0 0m-21.03 35.18c7.54-10.05 17.5-16.46 29.89-37.16m-28.62 36.33c11.46-13.88 22.43-26.39 29.95-34.53m-49.34 70.94c21.13-26.73 40.56-51.47 60.41-70.89m-60.42 70.94c23.13-27.8 47.56-57.16 60.12-70.66m-80.31 106.11c26.09-32.23 50.28-57.72 92.03-107.52m-91.86 106.94c32.83-38.37 65.86-74.22 91.38-105.27m-113.68 141.52c25.31-32.69 56.03-65.2 125.34-140.38m-124.58 140.33c34.95-41.84 71.3-83.07 123.31-141.61m-142.6 177.32c48.67-59.69 98.65-116.28 153.42-178.88m-153.91 176.95c60.75-70.48 122.07-141.02 153.29-176.6m-172.3 213.84c38.79-48.73 81.26-98.88 182.4-214.03m-184.14 213.25c51.31-59.08 103.33-118.36 184.29-212.76m-203.45 246.49c63.58-70.02 126.2-140.55 215.51-245.15m-215.19 245.82c76.92-87.66 154.19-176.03 214.57-246.54m-233.53 279.7c73.16-85.47 147.7-171.23 243.07-280.28m-242.53 280.62c76.03-85.62 150.36-172.21 243.26-279.78m-233.8 279.43c81.32-90.39 160.97-182.13 243.7-280.28m-242.55 280.92c62.14-73.85 125.78-147.36 244.17-280.28m-233.52 279.52c52.84-57.12 102.93-114.24 244.13-279.48m-244.52 280.06c62.54-75.48 127.35-149.72 244.43-280.6m-234.83 279.99c51.72-58.24 104.77-116.73 244.39-280.85m-243.55 281.25c69.72-78.65 137.2-156.86 243.95-280.42m-232.18 280.45c84.53-99.05 169.02-196.55 242.38-280.28m-243.95 281.08c54.04-62.19 107.01-123.1 244.91-281.72m-232.71 282.07c91.85-105.81 184.41-214.38 243.67-281.37m-245.04 280.99c88.84-100.07 177-200.84 244.45-281.38m-233.71 280.99c90.64-103.12 181.52-208.77 244.32-280.63m-244.02 280.41c93-109.27 187.94-217.16 244.47-281.09m-234.44 280.16c71.6-79.79 141.18-159.85 245.62-279.79m-245.02 280.82c49.11-57.74 99.43-114.58 244.26-281.12m-234.44 281.5c86.77-100.33 173.53-198.67 244.22-280.89m-243.59 280.19c87.81-101.95 175.45-203.11 244.18-280.38m-233.04 281.74c55.13-67.44 112.55-130.81 244.48-281.39m-244.41 280.71c67.75-79.52 136.12-158.13 243.19-281.29m-233.84 281.81c48.98-58.4 98.93-114.84 243.68-281.47m-243.26 280.68c71.71-78.56 141.83-159.52 243.82-281.22m-233.86 282.22c85.47-98.43 170.54-194.6 244.97-282.41m-244.14 281.92c53.67-62.5 107.36-124.54 244.16-281.84m-235.18 281.99c70.79-82.52 140.94-164 244.96-281.04m-243.6 280.96c67.31-76.8 134.88-154.01 245.1-281.13m-234.89 281.57c52.01-57.51 102.85-117.29 244.95-281.71m-244.93 281.53c51.95-60.08 105.26-120.63 244.43-281.68m-234.31 280.51c98.27-110.44 192.62-221.99 245.91-280.93m-244.99 282.06c48.37-57.98 97.48-114.13 244.06-281.47m-233.06 281.5c55.62-63.25 111.52-127.67 244.22-282.89m-245.09 281.89c53.99-61.8 108.22-124.42 244.48-280.77m-234.67 281.25c86.63-99.81 173.05-197.94 246.35-282.28m-245.37 282.92c73.75-86.73 148.01-172.14 244.82-282.17m-235.15 281.16c62.88-68.35 124.1-139.93 246.84-281.43m-245.26 281.45c86.86-97.54 173.63-197.32 244.1-280.75m-233.57 280.67c56.59-60.31 110.07-124.57 245.44-280.56m-246.31 281c91.04-104.95 181.46-210.54 244.78-281.22m-232.73 281.69c86.92-102.75 177.69-205.02 244.62-282.62m-245.38 281.63c72.16-80.53 143.88-163.42 244.32-280.81m-232.69 282.05c77.28-92.14 155.21-182.25 244.76-283.51m-246.15 282.92c94.75-105.73 186.84-212.44 244.94-281.49m-233.94 282.39c70.92-83.18 143.37-165.94 244.07-281.92m-244.75 280.72c67.32-78.27 136.03-156.95 244.97-281.38m-233.21 280.79c94.65-108.64 186.92-215.87 243.51-281.73m-243.85 282.34c58.31-67.36 118.02-135.59 243.89-280.94m-234.14 280.86c98.05-109.67 193.12-221.17 244.34-282.19m-243.17 282.45c77.82-92.58 157.13-183.29 244.64-281.65m-234.51 280.31c93.71-106.32 190.62-215.5 245.71-280.48m-246.19 282.01c60.6-69.74 120.57-137.71 245.12-282.43m-233.1 282.69c64.07-75.25 129.83-152.36 244.59-281.35m-245.84 280.06c97.35-108.75 191.99-218.27 245.55-280.82m-234.22 282.29c87.98-100.72 174.72-200.75 243.19-282.59m-243.38 281.57c59.6-67.72 118.23-135.68 244.76-281.52m-234.9 281.97c87.46-97.28 174.24-196.44 246.43-282.24m-246.33 282.01c52.31-57.95 102.48-115.54 245.09-281.76m-234.33 281.74c82.11-94.81 162.67-186.8 244.89-281.11m-244.51 281.2c58.75-66.88 117.5-133.05 245.07-282.27m-233.32 280.75c77.74-90.46 154.02-177.85 244.12-280.33m-244.8 281.4c63.32-75.12 127.6-149.61 244.29-281.22m-233.87 280.49c55.44-59.73 110.33-123.5 245.09-281.32m-245.77 281.59c53.66-57.89 105.42-117.7 244.63-281.46m-233.83 283.07c66.83-78.8 136.03-156 244.17-283.35m-244.42 282.86c54.78-64.33 110.1-128.34 245.39-282.06m-234.98 282.26c86.11-100.09 172.13-197.73 245.39-281.14m-245.08 280.3c72.15-83.41 145.94-167.87 245.71-281.93m-234.69 283.33c89.36-106.67 182.19-211.69 243.94-282.66m-244.66 282.54c73.07-85.87 147.65-171.95 245.2-283.01m-233.8 281.23c68.5-78.12 137.18-156.69 245.58-281.72m-246.43 282.31c98.55-111.6 196.73-223.25 245.08-281.2m-235.29 282.98c99.48-113.18 196.74-224.93 246.15-284.46m-244.78 283.41c66.79-77.38 133.69-154.17 244.67-283m-233.79 282.22c52.05-60.9 107.57-121.41 243.56-281.93m-243.88 282.3c89.36-102.29 180.11-206.11 244.93-281.84m-235.31 281.48c93.21-102.58 184.53-208.49 245.77-282.56m-245.32 282.69c70.83-81.74 139.76-161.62 245.47-281.95m-234.89 281.98c50.18-59.44 100.44-116.79 246.42-282.9m-246.14 282.64c58.16-66.11 114.78-131.29 245.71-281.35m-234.38 281.92c87.9-100.99 175.93-202.5 244.37-282.23m-245.45 282.26c57.55-69.31 116.45-136.32 246.19-282.75m-234.69 282.13c78.63-91.54 158.89-184.83 246.04-282.58m-245.98 283.04c91.63-106.26 183.72-214.34 244.8-282.62m-235.3 283.17c60.75-69.85 123.69-141.44 246-283.84m-244.91 283.33c50.11-59.27 100.12-116.21 245.42-282.15m-235.08 281.26c69.66-81.11 141.41-163.96 243.99-281.34m-243.99 282.52c88.75-100.37 176.74-200.37 245.65-282.39m-234.22 281.15c95.47-109.14 189.57-219.37 244.95-280.46m-246.4 281.51c53.9-59.12 105.08-118.18 245.41-283m-233.8 282.33c62.6-74.23 125.74-145.64 244.33-282.01m-244.97 283.09c68.66-78.2 136.93-156.34 245.65-282.3m-234.09 280.99c84.89-97.05 169.54-193.33 245.25-282.23m-245.85 282.72c60.65-69.98 121.51-139.71 244.76-282.08m-234.12 281.7c52.61-60.8 105.64-124.14 246.21-282.53m-246.93 283.6c54.45-59.72 105.77-119.05 245.82-282.78m-233.65 282.4c79.92-91.46 161.86-184.9 243.62-282.2m-244.55 282.45c66.35-80.04 133.47-157.22 245.7-282.22m-235.14 282.44c48.17-56.5 99.79-113.03 246.36-283.28m-245.99 282.24c97.85-113.03 195.73-225.46 244.75-281.79m-233.55 280.91c93.67-109.35 189.57-221.51 244.11-280.77m-245.62 281.59c51.37-59.71 102.61-117.51 245.62-281.43m-234.2 282.28c68.04-77.08 134.15-153.58 243.95-282.2m-243.66 281.38c55.23-65.22 112.29-131.41 244.69-282.2m-235.15 282.51c51.96-59.33 104.38-119.99 245.89-283.19m-245.35 282.77c78.41-93.23 158.22-184.78 245.54-281.33m-234.19 280.81c82.99-96.74 166.36-192.37 245.43-282.11m-245.64 282.73c69.56-79.27 138.91-159.22 245.46-282m-235.58 281.63c78.41-89.2 158.8-182.43 245.66-282.52m-245.44 283.08c67.15-75.23 133.77-152.48 245.26-282.34m-233.82 281.98c85.83-97.29 170.65-194.14 245.11-280.96m-245.99 281.18c65.12-72.85 129.95-147.06 245.62-281.59m-235.77 282.73c68.67-79.65 138.98-160.18 245.69-282.34m-245.12 282.1c59.76-69.65 121.02-139.82 245.26-283.2m-235.59 283.88c65.19-76.55 128.89-150.43 247.66-284.75m-247.26 283.89c65.99-75.69 132.36-151.36 245.66-283.37m-235.36 282.57c68.94-77.92 137.52-155.36 246.26-281.53m-245.88 282.57c55.04-63.78 110.75-126.69 246.47-282.83m-235.84 281.78c78.49-90.38 156.83-179.73 246.09-282.62m-245.7 282.93c82.71-95.77 166.22-190.77 245.29-282.61m-234.23 283.29c87.88-103.46 175.04-204.38 244.76-283.64m-245.56 283.92c82.46-95.71 163.7-189.09 245.69-283.6m-234.75 282.42c89.79-100.7 176.18-202.38 245.06-282.99m-244.93 284.04c72.9-83.37 144.42-165.7 246.2-282.9m-235.92 283.33c97.02-112.69 194.84-224.66 245.22-284.19m-245.59 282.92c65.3-72.93 130.23-147.18 246.41-282.29m-235.02 281.55c67.96-77.93 134.65-155.11 246.19-281.39m-246.01 283.08c73.25-86.39 146.7-170.5 245.76-283.44m-234.92 281.79c70.86-82.72 142.7-167.38 244.38-281.14m-245.46 281.77c66.99-76.65 133.17-152.83 245.98-282.97m-235.12 284.09c50.27-58.38 101.9-117.46 246.2-283.05m-245.65 282.48c73.11-83.22 145.82-167.63 244.99-283.44m-233.7 283.35c49.86-59.2 98.53-117.02 243.81-282.15m-245.19 281.94c91.68-104.03 183.73-209.05 246.65-282.39m-235.42 283.48c76.93-88.4 152.45-175.11 246.68-283.5m-247.21 282.8c94.06-109.06 187.99-217.53 246.14-283.32m-234.21 283.61c78.51-89.2 155.45-177.4 245.13-282.75m-246.57 281.84c85.86-95.85 170.94-194.08 245.8-282.21m-234.59 283.6c96.23-113.47 191.89-224.78 246.82-283.12m-247.26 281.46c56.31-62.09 110.38-123.42 246.59-282.27m-235.43 282.52c61.49-70.16 121.15-141.08 245.07-283.31m-245.83 284.01c83.15-97.35 166.22-193.19 246.88-284.06m-235.57 284.14c74.17-83.65 147.89-168.73 245.74-284.73m-246.53 283.73c57.89-65.96 114.35-132.21 246.14-283.15m-234.59 283.15c64.02-72.83 127.94-147.05 245.22-281.78m-245.83 281.82c63.97-70.96 125.72-142.82 246.08-282.26m-234.74 281.78c73.74-87.25 150.28-176.08 245.06-281.38m-245.11 282c47.24-56.76 97.32-114.35 245.83-282.73m-235.69 283.18c62.19-72.47 124.99-143.53 247.17-283.41m-247.49 282.52c86.95-100.37 174.18-200.86 246.83-282.1m-235.22 282.47c79.7-93.71 163.94-189.69 246.39-283.21m-247.25 283.84c68.64-80.97 138.02-160.54 246.67-283.86m-236.1 283.36c91.75-102.37 181.96-206.4 245.22-283.7m-244.99 284.22c69.2-79.91 138.02-157.84 246.5-284.02m-235.93 284.29c82.22-95.05 163.51-190.44 246.44-283.29m-246.78 282.69c95.34-109.45 188.19-217.46 246.05-283.3m-235.78 283.52c87.82-102.73 178.98-208.84 246.5-283.81m-245.88 283.83c50.99-59.58 102.86-119.33 246.8-283.08m-237.17 284.32c75.26-87.39 151.45-171.72 247.47-285.18m-247.25 284.28c93.38-105.27 185.8-211.19 246.87-283.46m-235.81 284.29c66.87-78.68 132.7-152.86 246.42-285.02m-246.5 283.84c77.08-87.55 154.14-175.61 246.21-283.06m-235.51 282.95c63.86-72.67 128-147.52 247.34-282.91m-247.11 282.85c72.04-81.93 145.16-167.01 246.4-283.23m-236.28 284.39c79.92-88.54 156.15-178.97 247.24-283.61m-246.96 282.26c71.67-81.78 143.23-164.36 246.43-282.72m-236.24 282.29c70.12-79.7 139.82-160.37 248.28-282.46m-247.3 282.75c85.49-98.89 171.25-197.13 246.33-282.57m-236.09 282.49c49.93-55.45 97.73-113.14 245.68-282.4m-245.96 282.92c57.82-66.52 115.66-134.68 247.24-283.67m-236.17 283.15c68.54-74.14 133.54-153 247.05-284.21m-247.46 284.43c70.96-80.96 141.52-161.94 246.47-283.11m-236.05 282.78c59.18-68.99 117.56-136.01 245.78-284.17m-245.25 285.33c95.66-109.77 191.69-220.66 246.05-283.91m-236.46 282.2c92.88-103.99 183.33-208.16 247.66-283.69m-246.49 285.26c58.94-69.69 118.51-136.6 246.62-284.06m-235.21 282.87c48.01-53.58 97.49-110.7 246.69-282.06m-248.24 282.3c88.79-98.7 175.36-198.28 247.51-282.64m-236.49 284.03c86.71-100.53 174.03-201.16 246.85-283.7m-246.32 283.13c70.24-82.77 142.17-165.42 246.62-284.63m-236.97 284.66c67.15-78.27 135.26-156.98 247.58-283.68m-246.78 282.87c69.41-81.89 141.73-164.59 246.58-283.92m-235.14 284.24c59.08-67.14 119.42-137.1 246.21-284.63m-246.91 284.95c70.86-82.01 142.72-163.33 246.24-284m-236.88 283.49c74.29-86.91 151-171.41 247.62-284.6m-246.59 284.54c84.34-95.56 168.78-192.38 246.71-283.32m-235.59 283.95c71.01-83.73 143.82-164.98 244.9-284.41m-245.15 283.6c60.58-70.49 121.83-141.15 246.52-283.83m-237.26 283.86c89.19-100.95 178.21-202.81 248.41-282.74m-247.86 282.85c94.43-109.13 191.15-219.07 246.5-283.67m-234.46 283.76c93.72-107.91 189.94-218.37 244.53-283.44m-245.75 283.42c83.28-96.32 166.55-192.37 247.29-283.29m-236.27 283.66c87.31-98.74 173.29-198.69 246.66-283.36m-246.44 283.65c72.52-82.67 145.02-165.69 245.76-284.19m-236.28 282.52c65.88-75.86 132.64-153.58 246.68-282.09m-245.44 283.22c72.87-84.64 146.03-169.43 245.91-284.05m-235.16 283.91c53.01-63.13 108.36-126.5 246.43-284.39m-247.23 284.77c66.62-76.06 132.36-152.34 246.73-284.06m-236.59 284.61c74.74-87.28 147.83-171.33 248.09-285.6m-247.54 284.73c53.42-63.51 109.01-126.87 247.04-284.06m-236.52 284.62c89.75-102.65 180.39-208.7 247.51-284.54m-247.79 284.15c73.44-83.36 146.67-168.55 247.43-284.48m-237.11 284.92c68.63-80.37 136.31-158.74 248.58-285.37m-248.08 284.95c90.95-107.43 185.32-214.54 247.54-284.52m-238.03 284.24c52.05-59.47 103.99-117.57 247.76-282.7m-246.71 282.82c80.63-91.5 160.13-182.99 247.6-284.33m-238.28 285.29c61.4-71.72 124.87-143.19 248.44-285.17m-247.72 285.19c94.02-109.2 189.31-218.81 247.08-284.34m-235.16 284.16c98.73-113.84 197.22-225.7 247.02-284.82m-247.46 284.62c60.54-69.61 122.09-140.07 246.48-284.81m-237.13 284.41c77.44-85.51 151.02-171.01 247.48-283.68m-247.17 283.48c55.75-65.78 112.36-131.4 247.36-283.46m-236.74 284.47c60.74-70.71 122.85-140.12 246.87-284.04m-246.16 283.47c81.47-93.94 164.9-189.45 247.52-285.09m-236.77 285.72c82.79-97.04 165.65-193.19 247.31-286.12m-248.27 284.91c63.02-72.43 127.92-146.5 248.2-283.51m-236.52 284.74c68.49-78.72 137.06-158.79 246.46-285.56m-246.67 284.71c54.19-64.23 109.34-127.72 246.88-284.41m-237.35 283.72c79.3-89.84 157.43-182.09 247.08-283.19m-246.06 284.19c96.01-110.13 192.12-220.74 246.96-284.91m-237.43 284.02c69.32-78.54 136.49-154.76 247.41-284.94m-246.18 285.76c73.18-84.64 147.27-169.18 246.82-284.38m-237.29 283.23c60.73-69.52 121.12-137.91 248.38-282.53m-247.07 283.83c70.94-82.09 141.99-164.21 247.12-284.46m-237.01 284.45c60.25-67.54 118.89-135.04 246.43-284.95m-245.97 284.54c80.05-91.68 158.82-182.79 247.13-284.21m-238.11 283.7c82.03-94.14 161.69-188.17 247.96-284.53m-247.41 284.46c97.75-113.33 196.91-226.96 248.45-283.76m-237.12 285.22c56.28-65.08 111.16-128.93 244.94-282.98m-245.31 282.55c51-56.83 100.76-114.41 245.02-282.51m-233.31 282.27c59.06-69.35 118.11-138.04 238.23-274.14m-239.48 274.23c76.86-84.35 150.61-170.52 237.98-273.89m-226.23 274.47c72.61-85.12 147.23-170.64 232.48-268.74m-233.33 268.1c53.3-60.95 106.92-122.18 231.81-267.77m-221.01 266.49c70.2-78.66 140.01-159.67 226.76-258.44m-226.26 259.15c87.82-101.37 177.33-203.62 224.98-259.63m-214.81 260.74c52.83-60.01 106.12-122.31 219.83-253.02m-219.57 252.37c52.81-59.13 103.97-118.34 219.02-252.13m-207.87 250.98c52.44-60.8 105.65-122.96 212.68-243.4m-213 244.57c78.28-91.09 157.23-181.52 211.99-244.4m-200.62 243.03c70.85-82.63 146.18-166.74 203.93-236.94m-205.73 237.52c50.07-54.16 98.57-110.16 205.82-236.78m-195.3 236.31c52.18-56.9 99.79-112.09 201.16-227.56m-199.82 228.93c61.68-74.15 124.25-148.25 198.09-229.42m-190.29 229.13c51.3-58.39 102.43-113.76 196.48-222.4m-194.98 222.94c73.63-88.29 148.81-173.6 194.7-223.81m-184.7 224.7c61.85-71.62 122.51-140.96 186.74-215.83m-186.51 214.64c54.99-63.53 110.41-126.83 187.26-215.24m-176.36 214.33c71.05-78.21 138.18-158.65 182.38-206.9m-182.97 208.41c42-49.41 83.12-96.3 181.37-209.31m-171.49 210.05c59.5-69.3 117.71-133.8 174.68-202.85m-172.54 202.03c52.44-61.42 106.18-123.76 173.69-200.85m-162.38 200.49c35.48-40.63 68.82-81.83 167.55-192.54m-169.63 193c41.25-48.72 81.8-95.96 168.38-193.7m-157.02 192.81c57.96-65.84 113.35-132.43 162.32-184.08m-162.39 184.11c51.77-62.76 105.94-124.52 161.55-185.24m-149.93 185.7c35.92-43.34 71.43-84.61 154.79-177.37m-156.45 177c44.93-52.35 91.2-104.54 156.16-178.2m-144.84 178.66c50.87-56.58 102.49-115.36 149.1-170.37m-149.14 169.53c44.26-51.9 88.45-103.51 149.7-171.28m-139.9 172c32.05-34.6 65.59-73.5 141.76-163.72m-140.33 164.36c55.95-65.24 112.21-129.18 141.37-165.28m-130.83 165.65c32.35-39.93 63.48-79.8 135.85-157.73m-135.91 156.12c42.05-50.27 86.46-100.87 134.71-156.43m-125.11 154.91c48.43-49.27 91.81-101.94 131.78-145.67m-131.84 148.48c44.62-49.9 87.01-99.04 129.68-149.58m-119.03 149.67c32.98-37.64 66.78-75.89 122.66-141.02m-122.52 139.72c31.71-34.47 59.69-67.98 124.81-140.86m-112.04 141.67c29.73-36.72 57.45-68.4 116.28-136.3m-118.51 135.68c26.78-31.27 53.5-63.79 117.97-133.74m-105.31 132.18c29.11-32.2 55.92-66.44 106.84-126.61m-108.9 127.18c33.54-37.47 64.28-73.12 110.93-125.69m-99.32 125.76c40.1-43.53 76.22-87.6 104.45-118.76m-105.4 119.65c24-25.8 45.36-52.6 104.49-119.16m-94.26 120.52c30.06-32.01 58.08-65.52 99.67-112.08m-97.81 110.76c24.94-29.3 48.67-58.43 97.25-112.37m-86.09 114.15c18.02-26.11 37.42-48.6 87.6-106.4m-88.73 105.08c30.52-36.24 62.62-71.53 89.56-105.28m-79.67 103.17c26.58-27.9 52.3-57 84.46-94.8m-84.94 95.63c25.73-28.08 51.24-55.99 86.15-96.36m-72.72 98.9c23.05-29.66 45.98-59.92 77-92.61m-79.57 91.57c20.51-23.12 39.83-45.32 79.54-91.55m-66.44 89.74c14.46-14.8 29.05-36.13 70.48-81.91m-72.8 83.55c22.17-26.11 43.55-51.02 71.98-82.82m-62.71 82.9c17.71-19.71 35.17-38.07 65.97-76.51m-63.92 75.32c20.95-23.99 42.32-47.96 64.8-75.13m-54.67 76.69c16.67-16.13 30.86-34.11 57.04-66.75m-56.8 65.39c20.91-24.34 42.24-48.3 59.08-67.2m-47.32 69.22c11.32-17.29 24.98-31.43 50.44-60.23m-51.27 58.43c16.6-17.76 32.55-38.23 52.34-60.25m-44.16 60.65c10.29-11.12 19.93-23.54 48.07-51.49m-45.88 51.73c12.82-16.39 27.78-32.66 46.48-53.7m-36.97 51.74c12.46-11.44 24.92-28 40.37-43.62m-40.01 45.58c15.02-17.03 28.08-32.83 41.19-46.81m-31.89 45.08c15.03-12.58 27.54-28.38 35.58-37.72m-33.9 39.42c10.94-12.59 21.89-25.65 33.21-37.99m-21.19 37.53c8.09-9.43 20-22.05 25.75-30.59m-27.42 30.37c9.35-8.27 15.62-18.06 26.38-30.75m-15.97 32.59c6.08-5.61 11.9-12.09 19.48-23.58m-19.52 22.74c4.7-5.94 8.85-10.96 20.29-24.27m-7.98 22.26c2.95-3.26 7.78-8.4 13.84-14.5m-14.95 16.76c3.45-3.32 5.55-7.88 14.26-17.52m-3.27 17.7c3.37-5.62 5.81-7.78 7.4-9.89m-7.75 8.48c1.74-2.29 3.56-4.16 7.98-8.4"
              stroke="#7950f2"/>
        <path d="M771.172 2191.83c393.25-.74 786.62.35 1600.65-1.05m-1600.2.28c539.76 2.02 1079.94 2 1600.99.4m-1.25-.69c-33.17-57.05-66.68-117.88-160.89-284.01m161.97 284.3c-61.98-109.7-123.1-216.88-161.04-284.57m.18.08c-437.56.72-874.59 3.12-1280.83 5.03m1280.19-4.52c-281.05.57-561.73 1.13-1279.68 3.53m.92.73c-43.25 76.32-89.32 155.79-161.72 280.94m160.74-281.99c-59.92 104.15-118.12 207.67-159.16 281.2m-.64-.18s0 0 0 0m0 0s0 0 0 0"
              stroke="#5f3dc4" stroke-width="2"/>
    </g>
    <g fill="none" fill-rule="evenodd" stroke-linecap="round">
        <path d="m1091.7 1634.1s0 0 0 0 0 0 0 0m-20.36 35.2c9.28-9.69 22.19-25.89 29.04-33.63m-29.87 34.14c6.52-8.74 14.43-16.49 31.67-35.27m-52.22 73.84c22.17-30.21 46.37-57.83 62.94-72.43m-62.89 70.59c16.85-19.46 32.11-38.69 63.17-72.76m-84.67 111.73c24.57-33.44 56.03-64.96 93.93-110.39m-94.5 109.47c23.51-28.29 49.51-56.6 96.16-111.39m-116.21 145.24c46.66-51.07 93.57-107.02 128.02-144.69m-128.08 146.01c41.53-47.46 83.76-96.65 126.8-145.59m-148.06 183.82c54.84-66.21 112.85-133.93 157.18-182.44m-159.08 181.92c53.82-61.85 107.7-124.92 159.43-184.13m-178.52 219.03c71.89-83.55 142.33-166.22 189-218.77m-189.76 219.81c69.69-78.06 139.14-158.58 190.24-219.61m-212.68 256.6c45.96-50.73 91.54-102.85 224.64-255.74m-224 256.1c76.77-86.7 152.61-173.58 223.3-256.88m-233.12 278.24c71.11-81.79 142.08-164.84 243.21-278.22m-242.86 279.5c52.37-61.51 103.81-121.65 243.71-279.44m-233.41 279.31c50.5-56.22 99.75-116.21 243.22-279.96m-242.57 279.22c80-94 160.41-185.67 243.22-279.3m-233.32 280.63c53.77-61.36 107.34-120.56 244.02-280.54m-243.44 279.41c94.56-110.36 190.51-220.22 242.89-279.51m-232.84 279.24c84.02-92.45 167.59-188.24 242.65-278.99m-242.24 279.97c59.75-69.59 120.04-138.46 243.07-279.4m-232.38 280.04c91.1-107.8 183.73-213.47 243.21-281.42m-242.41 279.97c58.42-67.58 118.25-135.87 241.78-278.45m-230.76 279.04c79.18-91.31 155.43-180.18 242.12-278.84m-242.5 278.46c59.78-66.4 118.66-134.58 242.11-278.74m-231.84 279.81c95.53-107.94 188.46-217.07 242.87-279.22m-243.09 277.72c83.74-96.93 168.98-193.8 242.4-278.87m-232.67 279.22c59.02-66.82 117.78-132.01 243.71-280.37m-242.67 280.27c76.36-88.14 153.63-176.89 242.37-278.76m-231.33 277.68c50.11-57.78 102.29-117.72 242.6-277.29m-243.31 278.59c76.08-88.68 153.08-177.01 243.12-279.76m-231.08 279.64c80.44-95.24 165.17-191.36 242.1-279.48m-242.79 279.3c73.65-86.96 148.29-172.57 242.2-279.65m-231 279.29c92.99-106.81 187.75-214.79 242.02-278.91m-242.81 279.3c52.48-56.9 102.34-115.67 242.26-278.84m-231.36 278.21c58.25-67.22 118.72-134.81 241.84-279.51m-242.33 280.04c68.42-80.69 137.42-159.56 242.4-279.13m-231.58 279.74c94.57-109.33 190.25-220.29 243.21-280.01m-243.29 279.74c76.79-87.46 152.97-174.36 243.11-280.01m-232.01 280.78c77.41-87.32 152.33-175.65 242.54-281.29m-242.72 280.26c88.19-99.41 175.73-200.96 242.57-278.63m-233.08 279.61c72.46-84.05 143.89-165.26 243.32-281.43m-242.18 280.49c86.24-101.28 174.36-201.82 242.78-279.74m-232.09 280.16c70.96-81.02 140.58-162.68 241.35-280.72m-242.35 279.64c68.93-77.99 137.1-157.32 243.48-278.35m-232.99 279.54c73.91-84.37 149.58-170.9 242.62-279.86m-241.98 279.9c75.37-88.14 152.28-177.28 242.73-280.24m-233.08 280.36c67.81-74.15 132.29-148.93 243.47-279.44m-243.45 279.35c60.04-67.53 117.67-135.12 244.16-280.46m-233.58 280.9c54.44-60.96 104.71-117.92 244.35-279.56m-243.9 279.65c95.2-108.97 189.74-218 243.68-280.17m-232.55 278.7c76.79-87.96 153.95-176.73 242.28-279.22m-243.27 280.17c62.77-70.26 123.07-141.16 244.1-279.94m-232.19 280.45c82.2-98.75 166.55-194.21 241.38-279.65m-241.98 279.47c54.36-61.25 107.51-122.37 243.43-280.49m-231.85 279c60.14-69.7 120.83-141.17 242.97-279.22m-244.18 279.73c93.1-104.8 185.74-210.94 243.53-278.99m-233.46 279.72c51.68-62.76 104.88-123.14 243.18-280.99m-242.57 280.23c69.37-79.15 137.87-159.7 243.98-278.92m-233.39 279.96c65.53-74.38 129.07-148.84 242.71-280.28m-242.45 279.26c76.99-91.63 156.02-181.31 243.25-279.01m-233.93 278.25c74.24-80.04 145.5-162.09 244.43-279.51m-242.89 281.07c72.59-83.37 147.01-168.65 242.46-280.58m-231.53 279.56c73.32-85.04 144.74-167.86 243.55-278.31m-244.86 279.45c53.49-60.53 106.25-120.97 244.09-280.21m-231.95 279.86c48.43-57.36 97.57-116.14 242.31-280.96m-243.32 280.57c55.32-64.52 110.51-127.98 243.38-279.52m-232.27 280.04c67.89-74.52 133.76-150.58 242.66-281.55m-242.89 281.69c57.1-64.86 114.61-131.42 243.14-280.31m-232.49 280.27c82.78-96.68 168.26-191.64 243.79-281.28m-243.7 280.47c62.14-70.75 124.86-141.69 242.62-279.61m-233.49 280.45c59.72-73.1 122.74-142.42 244.58-281.01m-243.5 280.7c94.28-110.75 189.21-219.01 243.69-280.74m-233.76 280.66c67.1-73.34 129.92-146.15 243.59-281.31m-243.32 280.73c52.99-57.71 103.86-116.11 243.45-279.81m-231.17 279.19c65.73-75.2 133.2-154.76 241.54-279.98m-242.03 280.45c77.99-89.48 156.42-179.86 242.84-279.23m-231.98 279.09c66.3-77.03 135.22-155.22 243.77-279.44m-244.61 279.55c88.54-99.19 175.89-199.47 242.97-279.09m-231.65 278.85c82.78-96.36 167.24-194.85 242.99-279.32m-243.12 279.52c79.2-91.3 158.27-183.87 242.65-279.66m-233.78 280.25c68.15-78.41 136.02-155.34 243.95-278.97m-243.36 278.29c51.92-57.99 103.75-117.91 244.48-278.88m-232.01 278.91c52.68-60.78 106.8-121.93 241.18-279.87m-242.24 280.82c79.08-92.28 158.75-184.08 242.66-281m-232.78 279.57c72.78-81.64 145.9-166.93 243.73-278.28m-243.36 278.98c75.71-85.49 149.74-171.78 243.83-279.35m-233.52 279.33c56.99-61.58 110.42-124.1 243.09-280.01m-242.96 280.59c65.15-77.13 132.39-153.81 243.71-280.97m-233.02 280.4c81.86-95.69 165.96-189.93 242.76-280.69m-243.02 280.67c53.25-62.36 107.57-123.67 244.31-279.48m-233.08 279.44c58.3-67.74 116.14-135.49 243.43-280.59m-243.39 280.68c89.03-103.57 180.58-208.46 242.9-279.77m-232.87 280.45c92.68-106.63 183.79-213.06 243.08-279.66m-242.61 279.41c92.66-107.88 183.45-212.94 243.04-280.69m-231.82 279.08c79.26-87.76 156.67-177.65 241.81-280m-242.32 281.18c61.63-74.36 125.82-147.17 243.51-280.05m-233.75 279.22c84.41-95.85 167.1-192.6 244.33-278.49m-243.14 279.32c55.66-63.41 111.52-126.65 243.28-279.47m-233.86 279.84c67.86-79.93 134.72-155.47 245.22-281.55m-244.16 281.63c50.69-57.36 101.41-116.45 242.65-280.77m-232.66 280.43c76.6-90.7 156.16-181.24 243.65-280.49m-242.57 280.29c63.3-72.26 126.67-145.52 243.36-279.72m-234.01 280.19c68.49-79.22 137.64-156.9 243.43-281.15m-242.94 281.04c79.38-91.74 158.96-183.66 243.59-280.9m-233.96 281.72c91.08-104.78 179.71-207.69 243.78-282.34m-242.71 282.42c51.31-58.3 102.91-117.47 243.54-281.15m-233.25 279.88c66.82-75.03 131.5-150.67 244.11-280.4m-243.86 281.07c85.68-102.22 174.46-202.97 244.09-281.37m-233.21 280.23c75.7-84.26 151.16-170.76 243.03-278.47m-244.07 279.35c58-68.52 116.74-136.86 244.53-279.98m-234.75 279.38c82.97-95.67 163.28-189.38 245.56-281.11m-244.73 281.87c72.48-83.3 147.08-168.85 244.89-280.89m-233.38 282.04c77.06-89.54 154.52-178.58 244.12-282.74m-244.94 281.14c88.61-102.64 176.17-203.29 244.12-280.84m-233.15 280.75c86.9-97.97 172.37-195.42 243.12-279.96m-243.54 280.34c88.93-104.17 179.71-208.18 244.99-280.39m-234.85 280.76c80.02-93.88 161.29-185.28 244.21-281.29m-243.58 280.63c50.27-58.82 100-116.51 244.32-280.24m-234.03 279.69c83.44-92.01 162.7-185 243.8-280.24m-243.23 280.7c56.89-63.79 111.68-127.97 243.97-280.05m-233.67 281.52c64.05-74.17 128.42-147.83 245.36-282.3m-245.14 281.18c65.29-72.84 129.06-146.58 244.73-280.84m-233.67 279.8c64.69-73.28 128.58-149.17 244.73-280.35m-244.98 281.74c91.53-105.23 182.48-210.86 243.87-281.32m-232.52 281.48c90.05-106.06 182.76-209.09 242.3-281.72m-243.16 280.66c58.19-66.23 116.59-135.24 243.69-280.36m-233.84 280.31c76.05-85.3 152.37-170.19 245.55-281.13m-244.5 281.7c83.03-94.7 166.81-189.91 244.25-280.68m-234.64 280.71c73.03-84.3 147.22-169.15 244.45-280.39m-244.15 280.14c73.24-84.68 147.31-169.96 244.47-280.23m-233.11 280.97c85.56-102.47 173.76-201.87 243.42-280.98m-243.14 280.75c72.2-85.15 146.79-170.04 243.46-280.8m-233.98 281.11c57.26-67.27 113.71-132.51 244.08-281.61m-243.03 281.33c55.53-65.91 112.13-130.95 244.18-280.63m-233.07 279.64c71.19-82.06 143.02-165.49 242.86-280.72m-244.15 280.94c67.7-74.79 133.97-150.91 244.79-280.62m-234.87 281.4c79.66-93 160.11-182.6 245.7-281.32m-244 280.53c62.28-75.31 127-148.93 243.63-280.54m-234.62 280.84c87.39-101.41 172.92-201.67 245.95-281.21m-245.32 281.36c71.51-82.08 143.6-165.4 244.11-281.57m-232.31 280.85c71.21-81.01 141.73-163.97 244.02-280.35m-244.6 280.84c65.08-75.27 128.86-149.8 243.63-281.37m-233.05 282.24c81.71-98.61 164.99-193.89 244.92-280.83m-245.13 279.36c64.3-71.28 127.51-144.12 244.68-280.17m-232.92 280.48c52.67-62.4 106.9-122.25 243.56-279.55m-244.27 279.93c81.36-94.18 163.37-188.51 243.75-280.86m-232.79 280.88c50.53-59.85 101.94-116.9 244.32-280.44m-245.24 280.29c72.58-80.01 142.57-161.39 244.86-280.29m-232.79 280.65c81.86-98.09 165.91-193.23 243.95-282.23m-245.62 282.3c54.72-62.23 110.2-124.93 244.8-281.65m-233.89 281.64c67.72-79.87 134.85-158.2 243.76-280.88m-243.05 280.41c81.37-94.71 164.46-189.85 243-280.88m-232.26 280.98c68.23-77.33 134.93-154.69 242.33-281.85m-243.33 282.08c73.46-84.4 146.85-170.21 243.92-281.48m-233.26 280.13c60.77-69.49 120.2-137.51 245.3-280.51m-245.26 281.56c53.15-60.43 105.47-121.24 244.81-280.93m-234.63 280.44c91.45-105.34 181.52-212 245.7-281.72m-245.07 281.47c97.09-111.81 193.34-222.53 244.34-280.54m-233.23 281.12c85.95-98.84 173.17-196.69 243.66-280.21m-244.55 280.14c85.51-97.54 171.04-195.45 244.97-280.6m-233.94 279.76c93.64-105.37 185.02-212.05 243.87-280.23m-243.23 280.89c84.82-98.41 171.2-197.1 243.2-280.26m-233.04 280.08c53.1-59.01 104.49-119.56 243.36-280.81m-242.84 280.6c51.09-59.73 104.29-120.41 243.05-280.1m-232.11 281.42c91.94-106.75 183.37-212.03 243.78-280.67m-244.38 280.24c63.63-74.88 128.88-150.09 243.76-280.83m-234.29 279.9c98.73-111.09 194.07-223.12 244.67-281.45m-244.65 282.72c79.31-92.29 158.53-183.45 245.41-281.61m-233.5 280.62c52.41-60.06 108.03-123.84 243.29-279.75m-244.2 280.84c66.95-74.77 133.11-151.25 245.03-281.95m-233.52 281.75c57.3-69.59 119.31-139.15 243.45-281.48m-244.64 281c54.82-62.07 109.18-126.15 245.42-281.34m-234.87 281.84c83.78-94.84 165.17-188.52 245.58-281.68m-245.64 281.24c81.88-92.14 160.41-183.45 245.26-281.09m-233.42 282.22c64.1-73.63 126.11-144.32 244.87-282.47m-246.24 281.49c74.31-84.79 147.72-168.96 245.77-281.48m-235.54 281.36c72.73-82.6 144.51-163.96 246.03-280.73m-245.74 280.49c57.84-68.51 116.48-135.46 245.93-281.67m-235.35 282.65c70.67-81.65 139.12-161.24 242.84-279.07m-242.31 279.04c91.44-104.67 181.15-208.23 241.53-278.44m-231.41 278.85c60.03-67.9 114.97-131.46 234.41-271.34m-234.18 269.86c59.85-68.45 119.68-136.76 235.56-270.06m-225.25 271.1c82.84-96.9 167.83-193.53 228.53-262.81m-227.28 262.44c71.91-82.51 142.58-165.14 228.81-263.15m-220.02 264.05c63.43-71.83 126.66-144.77 222.49-257.8m-220.76 256.19c52.99-63.7 109.09-127.1 222.08-256.04m-212.75 255.64c62.83-69.36 121.65-135.1 217.78-246.76m-217.5 247.75c45.53-50.27 90.06-100.91 217.12-248.09m-204.86 247.38c58.94-68.1 117.78-136.4 209.36-240.36m-210.02 240.74c70.59-82.69 141.32-164.1 208.29-240.77m-197.57 240.39c74-84.53 147.54-168.31 203.48-233.59m-204.44 233.43c81.33-92.84 161.73-184.69 203.2-233.73m-192.16 234.75c56.19-63.2 108.99-126.52 195.79-226.97m-195.4 226.1c55.63-64.49 112.2-128.43 196.54-225.91m-186.49 225.21c64.93-72.49 132.84-148.4 189.23-217.13m-189.31 218.09c49.01-54.97 96.51-110.25 190.81-218.77m-179.35 218.27c44.66-52.53 92.29-108.43 182.89-211.49m-183.91 211.42c49.21-57.57 97.99-113.41 183.63-210.16m-172.92 210.46c52.71-57.64 104.17-116.37 179.11-202.77m-178.97 202.75c70.07-77.29 139.36-157.8 177.92-203.44m-167.14 203.77c65.63-73.06 128.29-147.01 171.67-196.34m-171.69 196.64c55.75-64.28 111.64-128.29 171.86-196.86m-160.7 197.26c39.31-45.37 77.12-90.94 165.23-190.26m-164.83 189.45c41.04-47.73 82.05-95.86 164.11-189.58m-155.71 188.85c54.24-59.77 105.45-121.48 160.42-181.13m-158.88 182.72c51.38-60.7 102.31-120.97 157.74-183.32m-147.25 182.71c59.38-67.82 118-135.53 151.35-175.83m-150.81 176.36c49.5-57.2 98.79-113.84 151.79-175.86m-140.33 174.85c31.06-39.76 66.29-78.39 143.05-168.64m-144.28 168.08c53.62-61.04 107.47-122.46 145.23-166.17m-134.84 165.74c43.44-48.12 82.4-92.74 139.07-158.85m-139.64 160.81c48.23-54.39 93.98-107.46 139.16-160.98m-127.83 160.75c40.9-50.14 84.17-96.92 131.26-151.63m-131.89 150.4c53.19-60.28 106.72-120.94 132.53-152.64m-122.39 153.55c35.66-39.41 72.85-83.69 128.99-144.77m-128.78 145.09c30.98-35.5 61.23-69.87 126.28-146.01m-114.02 145c46.08-50.1 92.42-105.18 119-136.06m-118.97 136.86c47.38-53.64 94.4-109.77 120.38-137.57m-109.98 137.75c27.7-34.11 58.93-66.58 113.01-132.32m-113.35 130.84c27.83-31 53.97-63.7 113.04-129.75m-103.02 132.33c21.11-24.64 41.85-51.46 108.35-126.22m-108.67 124.31c39.95-45.28 79.13-91.54 108.71-123.46m-96.35 121.99c21.59-23.92 45.15-54.39 101.18-113.2m-102.12 114.8c39.11-42.84 76.48-85.84 99.43-115.14m-87.71 114.52c27.49-33.38 55.1-63.23 91.85-108.92m-93.85 108.73c38.84-40.64 75.66-82.35 96.15-108.18m-84.08 109.27c21.84-25.79 41.9-52.02 86.85-103.06m-88.26 102.51c27.29-31.88 54.56-62.54 88.76-100.76m-79.21 101.87c32.37-35.66 60.52-69.6 84.22-92.77m-82.57 93.19c27.56-32.28 55.43-64.13 81.37-95.28m-72.16 96.05c19.44-22.86 41.47-49.36 74.77-88.25m-73.41 87.32c26.73-31.66 55.06-63.31 75.69-87.9m-66.9 86.31c17.23-19.01 35.65-38.8 72.84-79.16m-70.7 80.63c23.34-29 47.73-54.5 69.66-81.06m-58.98 80.97c14.9-17.13 29.81-35.3 62.28-72.41m-62.96 73.01c16.58-21.17 34.03-40.11 63.5-73.14m-53.66 73.88c22.43-27.9 44.01-53.01 56.43-64.68m-56.54 62.36c21.87-22.51 42.4-45.64 57.68-65.09m-44.59 65.75c9.68-13.64 20.42-25.93 47.45-59.41m-48.15 58.72c11.18-13.28 22.41-25.57 48.22-57.3m-37.95 59.78c14.1-19.14 29.52-36.66 43.67-52.25m-43.52 51.1c10.77-12.71 20.36-24.39 44.07-51.19m-32.5 50.03c11.66-13.42 23.38-26.68 34.95-44.13m-35.95 43.69c10.22-10.28 19.68-22.64 36.46-42.17m-27.73 43.06c11.11-10.14 18.86-18.62 32.63-33.72m-31.55 33.65c11.72-12.68 23.54-26.08 30.82-36.15m-18.49 37.26c8.33-9.32 14.79-19.71 22.87-30.44m-23.84 29.32c5.19-7.44 11.31-12.59 24.2-28.56m-15.18 28.62c6.51-5.66 9.84-10.94 19.99-19.97m-18.3 18.98c4.38-4.48 8.49-9.69 18.54-19.81m-9.67 19.02c4.1-1.09 7.37-7.3 11.87-13.25m-11.12 14.96c3.49-2.42 5.27-7.03 12.06-14.24m-1.38 14.51c1.5-2.31 3.57-2.57 6.28-6.37m-5.53 6.08c1.96-3.03 3.54-5.38 5.26-6.41"
              stroke="#48bfdf"/>
        <path d="M931.776 1910.36c494.94.99 991.99.46 1280.02-.5m-1280.79.78c274.25-2.94 548.56-2.89 1281.47-1.45m-.7-.25c-46.55-81.44-94.57-162.4-160.04-276.69m160.33 276.67c-45.23-79.99-90.46-159.8-160.6-277.51m.09-.21c-314.88 3.67-628.39 4.2-958.98 2.13m959.49-2.27c-349.85.62-699.68 1.54-960.48 2.82m.73 1.24c-58.44 96.66-113.3 193.92-160.09 276.62m159.04-278.46c-51.44 88.55-102.73 175.88-159.83 277.74m-.18-.28s0 0 0 0m0 0s0 0 0 0"
              stroke="#0b7285" stroke-width="2"/>
    </g>
    <g fill="none" fill-rule="evenodd" stroke-linecap="round">
        <path d="m1253.4 1344.4s0 0 0 0 0 0 0 0m-21.2 34.08c11.18-7.58 15.83-19.47 33.43-35.53m-32.92 35.92c9.25-10.34 19.48-21.35 31.79-33.64m-50.37 68.56c18.71-24.36 40.02-46.38 62.45-70.17m-64.29 72.29c17.66-22.48 35.6-41.82 62.12-71.67m-80.96 105.56c34.44-37.98 70.83-82.28 92.96-106.44m-93.88 107.3c25.55-28.32 51.17-58.73 91.96-105.56m-114.51 141.54c45.53-49.05 86.08-92.8 125.72-141.68m-124.39 142.23c42.99-49.04 84.16-96.08 124.82-142.29m-143.74 176.31c55.16-63.81 108.83-126.92 155.8-176.31m-156.32 177.01c53.91-60.55 106.56-122.04 154.08-177.03m-176.26 214.26c50.86-62.04 102.72-121.63 187.19-213.99m-186.12 213.82c54.24-60.64 105.83-122.13 186.32-215.51m-206.49 251.33c74.98-83.59 148.49-168.69 218.04-250.11m-217.68 249.15c45.3-51.58 90.42-103.93 216.88-249.7m-237 283.57c90.6-103.2 179.94-206.19 247.68-284.61m-246.42 284.9c75.65-88.6 152.84-176.64 246.49-284.42m-235.96 284.48c87.08-98.24 170.32-195.81 245.97-283.56m-246.69 283.13c80.59-94.24 163.68-187.7 246.61-284.05m-234.64 283.68c51.15-58.11 104.53-119.34 245.4-282.04m-246.51 282.21c91.74-104.89 184.02-210.22 246.41-283.13m-236.02 282.94c55.43-58.74 107.38-121.46 246.93-283.85m-245.96 284.42c83.06-94.79 166.8-191.41 246.52-283.31m-235.23 282.3c67.77-79.5 137.84-160.75 244.54-283.45m-245.97 284.43c90.6-103.55 180.3-206.59 247.47-283.65m-236.22 284.41c54.12-67.01 110.86-130.43 247.07-285.27m-247.44 284.31c54.47-62.03 107.08-123.08 247.17-283.08m-235.46 284.39c69.15-80.39 137.08-159.55 246.7-284.37m-248.17 283.05c86.33-97.91 172.76-197.91 247.04-284.01m-236.03 283.91c73.72-82.74 148.94-167.86 245.57-283.37m-245.67 283.08c76.59-87.34 152.63-175.2 247.15-283.81m-237.55 283.45c83.23-93.63 164.2-186.41 248.6-282.75m-247.32 283.43c89.86-102.68 180.03-205.93 246.17-283.38m-236.28 283.89c95.31-109.01 189.86-218.68 247.1-284.1m-247.28 284.64c80.58-95.23 162.7-190.29 246.94-284.21m-236.63 282.92c52.8-59.66 104.3-119.35 247.66-284.58m-247.28 286.14c50.96-58.17 99.93-115.55 247.73-285.37m-237.68 284.05c68.63-77.21 136.82-156.32 247.07-283.94m-246.55 285.18c86.95-101.64 175.88-204.41 247.44-284.41m-236.18 283.42c83.03-94.54 164.21-187.64 246.58-283.88m-246.84 283.97c52.27-60.3 105.16-120.42 246.58-284.04m-235.16 284.61c49.85-58.87 98.66-114.75 245.33-283.99m-246.34 283.63c56.27-64.09 110.35-127.26 247.93-284.38m-236.3 284.9c83.53-96.9 169.69-194.24 245.18-284.19m-246.11 283.41c77.64-90.42 156.07-180.8 246.84-284.2m-235.76 284.49c56.42-66.4 112.32-131.99 245.88-284.66m-246.95 284.78c81.56-91.59 161.67-183.4 248.21-284.53m-237.11 283.62c83.29-92.6 164.22-186.3 247.47-283.49m-247.43 284.65c98.49-114.14 195.93-226.66 247.1-285.05m-236.32 285.73c67.24-76.17 133.65-151.76 247.88-286.32m-247.97 285.47c55.08-63.87 110.29-127.42 246.88-285.27m-235.79 286.16c50.31-60.63 104.61-120.31 247.77-284.57m-247.67 283.59c71.53-82.23 142.8-163.65 247.16-284.57m-237.94 283.76c62.24-71.56 123.88-142.64 248.09-284.49m-247.16 285.47c61.53-70.47 122.49-140.7 247.39-284.6m-236.23 284.09c85.28-101.38 174.03-203.43 247.68-285.38m-247.86 285.11c49.7-57.65 99.43-113.98 246.86-284.42m-237.65 285.63c90.67-105.35 179.62-207.81 248.09-284.41m-247.59 283.89c71.07-79.45 140.61-159.83 248.33-285.36m-236.95 284.17c85.41-99.52 173.28-200.53 246.35-283.89m-247.1 284.96c74.63-86.15 147.97-170.75 248.39-284.99m-236.7 284.49c54.36-63.53 108.51-126.03 247.05-284.03m-248.06 284.01c89.98-105.21 182.09-210.36 248.31-284.33m-238.39 285.35c63-68.91 124.02-139.76 247.82-285.31m-246.28 284.25c80.13-90.78 158.2-182.33 246.76-284.28m-237.75 285.85c67.97-82.04 138.31-159.66 249.64-286.88m-248.53 286.73c81.34-91.82 162.64-185.04 247.78-286.31m-237.46 285.61c75.42-88.77 149.52-175.26 247.05-285.93m-247.43 286.57c84.97-98.71 171.07-197.31 248.46-285.88m-237.29 286.39c58.28-65.93 114.94-132.22 246.46-287.03m-246.32 286.41c81.83-92.95 161.8-186.17 247.68-285.38m-237.06 283.8c58.88-66.74 119.36-135.99 246.73-284.64m-247.52 285.34c59.12-67.42 118.08-135.86 248.37-285.08m-236.88 284.51c96.35-110.88 196.64-225.63 247-283.18m-247.31 283.81c72.63-85.32 147.91-171.07 247.26-285.12m-236.67 286.48c49.8-57.32 100.17-115.81 246.7-287.38m-247.27 286.43c53.15-58.68 105.45-119.32 248.17-285.47m-238.12 285.77c91.28-103.55 178.21-206.92 247.35-284.61m-246.88 284.76c89.24-102.87 177.4-203.68 248.09-285.18m-237.57 284.94c93.82-106.5 186.36-212.79 247.88-284.13m-247.77 283.82c62.54-70.19 123.86-140.41 248.22-284.26m-237.79 283.59c77.53-89.32 153.1-177.25 248-283.55m-247.8 284.6c86.29-100.65 171.3-198.53 247.66-285.09m-236.42 285.45c92.96-106.15 187.51-215.98 248.35-286.42m-249.02 285.21c71.9-79.43 141.85-160.24 248.43-284.62m-237.74 285.21c74.99-85.99 149.42-172.69 247.46-284.46m-246.52 284.16c72.36-84.65 145.36-170.25 246.35-284.49m-237.09 284.28c70.46-78.02 137.46-158.78 249.02-284.22m-248.34 284.45c57.95-66.52 115.21-132.68 247.97-284.99m-237.32 285.42c50.47-57.1 99.87-114.51 247.32-285.29m-246.75 284.37c98.19-111.7 196.71-224.73 246.38-283.81m-236.28 283.92c92.51-105.03 186.37-213.11 246.65-285.15m-246.67 285.15c88.75-100.55 178.51-202.61 247.84-284.57m-237.21 285.24c81.69-95.29 163.51-189.74 246.75-284.01m-246.66 283.04c98.77-111.63 196.08-223.65 247.56-283.46m-236.23 285.19c97.9-113.64 196.1-227.14 247.66-284.77m-247.9 284.18c69.62-83.66 142.22-166.61 246.65-284.99m-237.57 285.2c64.28-72.74 126.34-145.5 247.33-285.83m-246.18 284.58c96.72-112.17 195.15-224.87 247.29-283.85m-238.09 285.42c79.83-91.36 158.81-182.76 249.46-286.61m-248.65 285.75c54.83-63.21 109.9-126.66 248.51-285m-237.48 286.04c83.29-98.27 171.09-196.92 246.47-287.04m-246.39 286.19c70.6-80.24 139.3-160.55 247.23-284.95m-236.9 284.08c88.19-100.49 176.65-203.48 247.5-284.72m-247.7 286.28c76.59-88.75 152.15-175.87 248.26-285.93m-237.14 284.5c60.93-69.48 123.53-142.14 246.87-284.1m-246.98 284.58c69.05-79.37 137.99-159.47 247.11-284.47m-236.37 285.93c87.9-103.12 177.68-205.35 246.42-287.47m-246.34 286.21c65.6-75.41 130.13-149.89 247.6-285.33m-238.19 286.3c56.16-65.7 111.93-131.34 248.33-285.38m-247.67 284.05c97.92-114.01 197.31-226.96 247.38-284.75m-237.84 284.8c52.51-58.49 102.83-116.71 250.24-285.58m-249.38 285.72c90.19-104.04 180.72-207.95 248.76-284.81m-238.68 286.23c94.02-110.1 190.18-219.23 247.64-286.45m-246.89 285.08c98.79-109.85 195.13-221.49 247.85-285.03m-236.05 284.88c52.63-62.04 105.8-124.56 246.03-284.27m-247.61 284.36c64.21-75.42 130.61-150.97 247.9-284.78m-237.33 285.78c65.5-74.87 131.39-151.5 248.78-285.26m-248.4 283.82c95.45-108.61 191.05-217.37 248.35-284.5m-237.32 284.97c88.47-101.61 179.55-206.71 246.15-284.8m-246.8 285.48c88.68-103.2 178.68-206.06 247.18-284.16m-237.08 284.43c58.76-67.26 116.49-133.56 240.63-278m-240.17 277.61c64-74.1 127.58-146.9 240.83-276.97m-228.64 275.48c55.13-63.52 110.9-127.14 232.6-268.96m-233.77 269.92c53.67-60.73 106.36-120.93 234.12-269.64m-224.56 270.06c77.98-89.33 153.15-175.01 228.08-261.39m-226.6 261.25c63.11-73.54 125.85-147.45 227.05-261.71m-216.2 260.33c61.07-70.85 125.43-143.65 220.03-254.09m-221.18 255.75c86.76-98.16 170.47-196.42 221.52-254.93m-210.93 253.27c43.39-46.35 87.23-96.44 214.1-245.25m-213.46 245.57c52.6-59.11 104.61-118.86 214.61-246.11m-204.56 247.14c75.36-84.56 150.11-171.81 209.69-240.37m-209.98 240.45c68.99-77.59 137.29-157.7 209.88-240.07m-198.34 239.66c64.16-75.85 131.87-154.48 202.46-232.52m-202.74 232.48c65.18-75.56 130.68-151.59 202.68-232.99m-191.61 235.11c73.38-86.65 149.18-175.44 195.13-228.11m-195.47 226.2c61.75-72.92 124.47-143.93 196.31-225.24m-186.84 224.99c48.86-56.42 96.07-111.68 189.64-217.87m-189.38 219.09c51.06-55.87 100.63-113.29 189.77-218.47m-178.12 217.26c54.52-62.47 113.21-128.22 182.99-211.24m-183.98 211.38c66.31-78.66 134.51-156.23 183.96-210.4m-172.91 211.04c58.07-69.29 117.43-135.6 176.55-204.04m-176.35 203.87c63.46-71.02 125.54-143.82 176.08-203.84m-166.35 204.65c55.59-64.19 108.67-124.84 171.1-197.66m-170.46 196.95c42.53-51.52 85.73-101.71 169.77-196.06m-157.92 196.53c59.21-72.26 122.46-145.13 163.9-189.99m-165.86 189.62c44.89-49.39 87.94-98.37 164.78-189.62m-153.7 187.92c35.1-41.68 73.53-82.23 159.73-179.9m-159.22 181.43c51.98-60.39 103.92-120.19 157.97-182.82m-147.25 182.55c34.11-40.97 71.59-83.3 151.97-174.46m-152.18 175.27c32.58-36.39 63.61-72.69 152.19-174.68m-141.01 172.6c42.9-52.64 89.84-101.19 142.91-166.8m-142.81 167.48c41.87-45.28 83.32-93.57 143.73-166.33m-133.05 168.14c50.77-61.9 103.57-123.34 138.26-159.73m-138.92 158.76c53.85-62.09 107.64-124.16 138.24-159.7m-127.43 160.93c33.21-39.47 66.23-80.72 130.92-153.88m-130.58 153.24c53.56-61.26 105.82-122.7 131.47-153.8m-122.89 154.7c40.1-47.36 82.3-94.46 126.35-148.37m-124.65 147.51c41.78-48.03 83.34-95.51 125.68-145.08m-115.78 145.02c48.27-56.64 93.99-107.97 117.82-136.35m-118.23 135.91c35.05-41.04 71.16-81.57 119.74-137.3m-108.11 135.31c25.67-27.78 53.02-58.07 113.72-127.31m-113.84 129.65c41.73-46.21 83.59-93.77 113.09-129.87m-103.77 130.87c36.32-40.78 69.91-80.24 107.79-123.84m-106.71 122.53c40.33-46.16 80.76-93.41 107.73-124.47m-98 126.23c28.7-33.05 55.25-67.66 100.94-119.51m-101.27 117.52c37.38-41.61 73.48-84.05 102.09-115.08m-89.26 114.5c19.06-25.46 40.71-46.72 94.6-108.4m-95.31 109.03c35.04-41.57 70.69-82.24 94.35-107.41m-86.4 109.62c28.59-34.55 55.91-64.94 88-102.59m-85.93 101.14c29.74-34.76 60.36-68.83 87.74-102.4m-78.68 101.56c32.81-32.43 60.28-67.86 84.23-93.89m-82.43 94.11c19.8-21.62 37.76-42.95 80.62-94.04m-70.28 93.19c28.94-31.41 57.84-67.25 75.51-87.41m-76.28 88.65c25.99-28.63 48.79-55.51 75.71-86.78m-64.22 86.12c14.18-17.95 30.2-32.27 68.61-78.46m-69.31 79.62c14.7-18.54 30.05-34.57 69.55-80.56m-57.03 81.06c10.4-16.77 25.94-30.84 60.76-73.11m-62.37 71.32c15.67-18.01 32.21-35.45 62.37-71.37m-51.88 71.55c17.26-19.99 37.11-38.48 57.05-65.2m-57.44 65.25c20.65-23.21 42.1-46.17 55.51-64.16m-43.23 66.2c13.98-20.38 30.98-38.78 47.7-57.82m-47.74 56.32c12.65-17.03 27.34-31.85 48.71-58.4m-37.41 59.44c5.71-13.23 17.68-23.94 41.49-52.27m-43.81 50.6c13.21-14.54 26.79-29.5 43.5-49.03m-31.21 47.74c10.22-11.22 21.25-27.74 37.64-40.65m-38.21 42.64c9.27-11.86 17.51-21.72 37.12-43.03m-25.09 41.42c9.04-10.05 17.61-22.14 27.25-34.78m-29.66 35.13c12.39-12.06 24.01-25.84 29.89-34.36m-19.79 36.88c4.76-5.96 12.97-11.8 26.54-31.74m-25.08 29.2c5.99-6.47 12.61-11.91 24.57-27.47m-14.9 27.31c5.07-6.27 9.83-7.94 18.25-18.85m-17.73 20.15c6.19-7.27 12.5-14.99 17.7-20.31m-7.43 19.08c2.49-3.35 6.44-4.7 11.59-10.58m-11.79 11.05c3.36-3.17 6.92-7.31 11.43-12.86m0.17 13.67c1.77-2.4 2.88-4.34 4.33-6.09m-4.74 5.15c1.34-0.83 2.44-2.34 4.83-4.87"
              stroke="#82c91e"/>
        <path d="M1091.022 1627.164c283.85-1.09 567.66-1.89 961.61.85m-961.33-.66c257.02 2.63 514.24 3.4 960.67 1.31m-.24 1.01c-60.46-109.36-122.56-216.55-162.96-286.84m162.94 285.19c-35.77-61.17-70.77-123.91-163.77-284.85m-.19-.77c-186.23.67-372.91 1.41-635.02 2.52m634.88-2.01c-190.06 1.79-380.65 2.38-634.33 1.71m1.23-.59c-40.77 73.09-81.64 143.74-162.12 283.84m160.3-283.04c-31.44 56.23-64.31 114.56-161.02 282.6m-.27.24s0 0 0 0m0 0s0 0 0 0"
              stroke="#5c940d" stroke-width="2"/>
    </g>
    <g fill="none" fill-rule="evenodd" stroke-linecap="round">
        <path d="m1413.6 1065.1s0 0 0 0 0 0 0 0m-22.22 37.95c8.92-11.55 13.54-16.35 31.43-37.7m-31.04 34.96c9.6-9.41 18.51-18.6 33.32-34.89m-54.7 71.44c20.18-23.63 42.73-45.6 63.76-72.05m-61.64 72.24c20.52-25.41 44.25-51.32 62.26-71.17m-85.42 108.04c34.38-35.95 62.5-71.49 95.2-109.33m-94.34 109.82c37.23-41.78 72.4-83.84 96.08-109.11m-116.39 146.29c27.39-33.05 60.18-68.49 126.92-145.96m-126.37 144.48c29.04-34.73 60.27-69.92 126.3-144.61m-148.57 181.92c49.61-59.79 100.07-116.57 159.23-181.74m-158.54 180.78c45.74-52.35 90.34-103.94 158.52-181.71m-178.35 216.55c67.15-79.09 136.91-158.76 189.28-216.68m-189.45 217.81c39.43-46.44 78.08-91.52 187.78-217.24m-208.27 254.1c62.71-70.76 123.8-141.26 220.14-255.66m-221.08 255.1c67.45-77.79 134.13-154.73 220.54-253.43m-234.25 280.66c73.13-83.1 146.34-165.61 243.87-280.96m-243.58 281.28c93.94-108.38 188.29-215.27 244.05-281.17m-233.32 282.26c59.98-71.34 120.5-139.77 244.92-282.18m-245.35 280.58c92.62-104.1 185.99-211.69 244.43-281.5m-234.14 281.94c86.14-96.35 168.99-193.29 246.46-280.57m-246.29 280.62c78.46-88.21 156.39-178.57 245.36-282.02m-234.88 282.55c57.6-63.92 111.04-126.98 244.62-281.59m-244.06 280.73c71.93-81.97 141.86-162.42 245.18-281.29m-235.53 281.41c96.36-110.73 190.89-220.01 245.04-280.61m-244.05 280.51c51.88-59.73 104.44-120.63 244.83-281.71m-233.39 281.85c91.84-108.47 187.44-217.25 243.19-282.48m-244.16 283.06c59.64-70.27 120.41-139.88 245.4-282.14m-233.42 282.62c68.2-82.04 137.65-160.85 244.1-281.93m-245.43 281.03c78.35-87.34 154.53-176.77 244.47-281.64m-233.91 280.87c65.47-71.16 128.35-146.31 245.12-280.78m-245.41 281.88c77.6-88.66 154.66-177.51 244.67-281.81m-234.36 281.06c59.05-67.01 119.04-133.91 245.73-280.49m-245.05 280.51c71.02-80.66 141.35-161.81 245.11-280.79m-234.7 282.08c81.82-94.54 163.16-189.88 245.14-282.23m-244.59 280.77c92.32-106.82 184.95-214.26 245.03-281.71m-235.67 281.3c57.77-66.38 115.68-131.95 244.65-282m-243.07 282.85c57.85-68.25 116.57-135.16 243.86-281.8m-234.53 281.18c66.61-74.53 131.38-151.11 245.31-280.34m-244.06 280.3c91.67-104.36 182.16-209.52 244.83-280.82m-235.16 281.13c49.23-58.33 99.95-114.65 245.36-282.42m-245.27 282.86c80.1-92.11 160.41-185.11 245.2-282.4m-233.96 282.91c66.37-80.57 135.88-160.1 245.25-283.29m-245.62 282.96c63.02-74.43 127.08-146.81 244.86-281.75m-233.66 280.07c58.93-66.79 117.29-135.61 245.04-280.15m-245.84 280.93c80.36-92.89 160.87-185.51 245.05-281.58m-234.08 282.83c83.08-98.41 167.04-196.37 244.57-282.13m-244.45 280.91c61.61-68.49 122.8-137.26 244.71-281.04m-234.97 281.87c51.11-58.03 101.09-116.6 245.76-280.91m-244.59 280.57c64.67-76.74 131.18-153.62 244.19-281.95m-232.83 281.85c50.16-57.75 100.85-116.6 242.9-282.58m-243.76 282.92c92.25-106.16 184.69-211.98 243.96-282.55m-232.39 281.02c80.09-91.16 161.08-184.01 244.66-280.66m-245.66 281.12c52.6-62.2 106.02-122.27 244.66-281.28m-234.81 282.7c90.89-104.33 182.37-210.54 244.74-283.05m-243.76 282.53c79.56-91.7 159.19-182.2 244.64-281.58m-234.48 281.1c95.4-110.21 190.25-221.14 243.84-282.68m-244.12 282.57c62.93-74.09 127.26-147.29 244.82-280.97m-232.93 281.29c73.56-86.89 150.23-174.03 244.83-281.94m-245.35 281.32c51.4-57.29 101.85-115.14 243.87-280.76m-234.42 280.12c85.73-97.12 169.86-194.42 244.04-278.96m-242.95 280.43c81.79-94.6 165.14-188.23 242.93-280.93m-232.78 279.86c57.76-68.48 116.59-134.46 237.36-270.98m-237.37 271.23c91.19-103.23 182.5-208.28 237.04-272.45m-225.29 273.76c70.94-78.51 139.7-160.32 229.43-265.67m-230.57 265.27c51.55-61.34 102.36-121.23 230.54-265.65m-218.97 264.55c81.33-94.76 167.59-191.29 221.94-256.55m-222.12 257.11c56.76-64.52 111.92-128.41 222.58-257.42m-212.68 257.83c70.31-85.16 143.2-167.79 217.07-250.49m-216.35 249.66c71.96-82.13 144.04-165.12 217.13-250.76m-205.86 252.35c52.56-61.92 104.71-125.95 209.23-244.01m-209.95 243.23c46.68-56 93.02-109.72 211.14-243.99m-202.33 242.37c58.05-63.8 113.13-128.5 205.45-235.34m-204.61 236.57c62.63-70.86 124.04-142.99 204.92-234.96m-194.96 234c81.75-89.09 158.95-180.05 200.67-227.18m-199.91 227.31c75.67-86.16 150.85-172.96 198.33-228.05m-185.98 229.01c62.02-71 122.71-144.18 189.63-222.86m-190.81 221.74c45.99-50.24 89.75-100.97 192-219.97m-180.94 222.1c50.51-61.13 101.03-121.04 185.55-214.2m-185.36 212.38c38.33-45.04 78.99-91.59 184.83-212.65m-174.46 212.78c43.27-49 86.6-98.76 179.62-206.67m-180.01 207.02c41.65-46.58 83.29-94.98 179.44-206.09m-169.65 206.86c60.21-71.25 122.02-140.22 173.82-198.71m-172.45 198c46.63-56.34 96.52-112.99 171.81-198.09m-160.63 198.11c61.36-67.52 118.22-135.41 164.1-192.22m-165.72 192.31c47.67-52.32 93.92-103.42 166.51-192.09m-155.03 190.64c33.97-38.83 66.47-79.04 160.17-183.15m-160.58 184.57c57.83-68.24 114.24-134.8 160.12-184.7m-149.75 185.86c55.96-64.22 108.38-123.39 153.95-179.29m-153.62 178.54c53.61-62.21 107.94-123.01 152.87-178.27m-141.58 177.11c34.99-40.81 69.83-81.5 145.87-167.08m-147.19 166.79c39.35-44.03 77.25-88.18 147.98-167.83m-137.14 167.51c40.33-42.21 76.45-88.77 139.48-159.59m-139.49 159.77c43.29-46.17 85.12-93.75 140.34-160.53m-128.67 161.43c46.84-55.48 94.95-111.02 135.25-153.3m-136.68 153.53c31.72-35.81 62.84-72.27 136.06-154.32m-122.63 155.56c41.53-50.28 83.75-100.28 127.53-149.09m-128.5 146.37c47.88-56.63 97.09-113.74 127.16-146.68m-116.12 147.8c28.69-33.86 56.91-70.7 119.22-137.88m-121.29 137.83c46.83-52.12 92.79-105.94 122.48-139.54m-110.43 138.66c35.93-42.11 72.66-80.65 112.6-132.92m-114.03 134.28c38.62-43.59 76.25-87.15 115.26-132.24m-102.86 129.8c42.03-45.43 84.34-95.92 106-123.92m-107.4 126.23c24.06-30.15 47.73-57.89 109.44-125.24m-100.2 124.78c37.76-41.45 71.87-81.37 103.27-117.74m-100.68 118.3c27.31-33.31 56.06-66 101.26-118.91m-92.95 118.73c37.83-40.16 71.15-82.67 97.74-111.11m-96.95 111.15c32.96-38.74 65.13-75.8 97.14-110.19m-84.67 110.31c26.15-31.47 54.43-67.86 86.25-104.16m-88.35 104.31c19.05-23.49 38.38-45.53 89.8-104.24m-77.5 104.51c31.57-38.05 63.01-74.29 83.14-94.33m-85.35 93.29c26.52-29.09 53.72-61.19 84.2-96.21m-73.43 98.6c23.5-26.42 46.54-53.16 76.91-89.54m-76.68 88.05c28.41-33.06 57.93-64.47 78.2-88.53m-65.15 86.68c24.96-29.48 53.14-61.85 68.92-78.2m-71.2 80.22c16.77-18.27 31.62-35.36 71.28-82.85m-60.84 82.14c21.97-26.15 42.44-49.35 65.98-74.5m-65.83 73.65c24.86-27.58 50.4-57.03 65.12-73.34m-52.78 72.93c14.82-15.42 26.67-31.88 57.78-63.35m-60.16 64.64c18.03-19.46 36.93-39.22 59.03-65.69m-47.57 65.31c20.53-19.83 36.64-42.92 50.14-57.93m-49.01 58.65c18.86-21.89 39.08-45.5 51.19-60.52m-40.1 60.08c10.18-14.07 22.8-29.33 42.42-52.67m-43.04 52.62c11.87-15.2 25.92-29.99 44.07-52.51m-35.75 54.34c15.53-17.42 31.45-35.29 39.45-47.71m-37.95 46.66c10.9-13.05 23.03-26.19 38.39-44.84m-27.06 44.78c6.92-11.7 18.97-22.29 32.91-38m-33.12 38.35c11.49-15.07 22.26-27.97 32.41-38.15m-23.79 35.34c8.31-3.97 12.52-13.71 25.95-25.95m-23.48 28.7c5.91-9.5 11.97-16.59 24.69-31.38m-16.45 28.84c8.39-4.64 12.7-11.43 21.92-22.25m-21.46 24.18c6.91-6.13 12.33-12.64 20.68-22.43m-9.59 22.32c4.97-4.79 7.45-8.23 13.67-14.79m-13.55 14.91c5.56-6.31 9.21-9.99 14.09-15.21m-3.51 13.85c3.41-2.3 4.74-4.15 7.04-6.41m-7.07 7.04c2.5-2.24 3.96-3.66 6.72-6.85"
              stroke="#fab005"/>
        <path d="M1251.801 1344.537c173.82.72 345.47 1.08 636.99-1.42m-636.8 1.83c225.79.38 452.09-.85 637.45-1.27m1.03-.74c-37.76-65.24-74.52-128.18-161.66-280.2m159.98 280.31c-49.42-89.68-101.58-179.13-159.64-279.2m-1.21.29c-114.9.04-231.06-.08-313.66 1.19m314.56-.81c-88.41-.11-176-.29-315.09.46m-.76-.32c-59.32 107.83-121.41 216.96-160.47 278.96m161.27-277.85c-54.72 90.22-106.71 181.01-161.72 278.94m.24.24s0 0 0 0m0 0s0 0 0 0"
              stroke="#e67700" stroke-width="2"/>
    </g>
    <g fill="none" fill-rule="evenodd" stroke-linecap="round">
        <path d="m1572.5 787.38s0 0 0 0 0 0 0 0m-18.24 35.29c6.11-10.63 12.15-17.14 22.92-28.41m-24.66 29.45c4.27-6.06 9.49-12.46 23.7-29.56m-43.04 65.4c12.96-20.8 32.55-38.91 48.39-58.32m-51.13 57.5c14.12-14.69 28.34-28.98 51.21-56.78m-71.71 91.4c24.95-26.21 51.7-55.42 75.2-83.02m-75 83.93c28.32-31.06 55.98-63.12 76.07-84.8m-95.61 123.09c33.01-40.45 66.56-78.45 98.42-114.34m-97.93 113.38c30.11-35.29 60-70.66 98.64-115.58m-118.51 149.17c44.03-46.01 85.52-96.51 122.95-142.12m-124.43 143.67c48.86-55.25 97.16-110.43 124.3-142.33m-144.01 177.57c53.23-62.44 109.59-123.83 148.31-170.55m-149.29 170.86c29.98-35.08 60.77-69.32 148.33-169.99m-169.95 205.22c64.95-73.79 129.23-145.07 173.92-199.72m-172.73 201.36c56.93-68.27 115.27-134.94 173.33-200.11m-186.21 228.68c47.61-56.14 95.51-111.52 189.26-221.7m-189.88 220.75c55.61-65 112.16-130.39 191.73-220.82m-181.89 219.29c43.98-49.18 88.88-100.16 185.69-210.52m-185.3 210.92c40.71-47.09 83.14-96.62 185.43-212.58m-173.37 212.1c39.31-48.11 82.27-95.85 177.6-202.95m-179.63 203.42c52.55-55.67 100.9-114.08 178.45-204.32m-167.22 206.18c39.24-45.51 77.44-89.99 173.11-198.71m-173.04 196.95c45.11-49.11 87.58-99.02 171.22-197.82m-159.84 199.26c37.16-45.36 75.65-88.73 165.22-191.35m-166.37 190.8c36.49-43.73 74.66-86.1 165.62-189.89m-154.13 188.95c40.37-47.89 82.23-97.67 159.33-183.53m-159.47 183.23c59.55-67.45 117.75-133.25 157.84-181.13m-146.97 179.99c56.16-63.33 111.73-128.4 150.87-174.82m-150.06 175.74c55.61-64.26 112.2-127.75 151.32-175.01m-139.95 175.34c41.81-52.19 87.62-102.69 145.04-167.42m-146.32 168.05c41.46-47.03 80.46-92.69 145.46-168.67m-135.89 168.45c32.23-34.73 58.76-68.52 140.13-160.31m-138.53 159.43c41.31-46.69 82.54-94.3 138.63-160.21m-129.05 159.77c44.86-48.72 90.7-99.35 134.02-151.99m-133.98 152.49c33.12-37.37 65.39-74.98 133.57-151.94m-120.81 153.82c48.47-56.9 95.62-113.78 124.78-145m-127.16 143.99c46.38-54.27 92.04-106.12 125.61-146.25m-115.6 145.83c45.03-50.86 91.82-105.07 118.59-138.86m-117.2 138.41c38.27-46.44 78.9-91.62 118.93-137.54m-109.26 138.64c39.27-44.68 75.83-87.94 114.74-129.34m-114.81 129.26c34.06-40.4 67.14-76.84 113.97-131.71m-102.78 129.79c31.59-35.96 65.99-75.07 105.44-121.53m-104.72 122.5c33.3-36.85 64.76-75.7 105.48-123.24m-93.95 121.69c32.18-37.81 65.03-76.86 97.46-114.74m-98 116.23c34.38-40.82 72.16-82.56 99.97-116.07m-91.38 115.03c23.78-25.71 43.11-49.52 95.38-106.32m-94.11 107.27c33.1-37.81 66.51-76.95 93.05-107.41m-80.32 105.6c27.08-33.69 54.3-65.69 85.6-99.58m-87.58 99.85c18.28-19.45 37.47-40.06 87.35-99.74m-75.31 100.01c23.52-27.41 46.31-52.8 81.01-92.11m-81.56 92.64c31.1-36.81 62.15-73.15 79.31-93.01m-68.79 92.67c20.92-23.45 39.95-46.7 71.72-82.74m-71.16 82.48c16.38-19.16 33.33-40.74 71.76-83.68m-63.59 84.33c21-20.52 38.62-40.16 68.96-79.54m-68.21 79.13c19.85-22.88 41.63-46.69 67.95-76.72m-54.93 76.07c21.17-23.75 40.52-47.74 58.48-68.84m-59.33 69.06c12.46-14.96 26.67-30.51 60.89-68.58m-50.99 69.49c21.6-25.07 41.11-47.6 52.53-63.71m-52.72 62.63c17.96-19.36 36.08-41.12 55.34-61.73m-44.13 62.58c18.15-20.91 37.46-42.21 47.18-57m-48.18 57.92c14.6-17.18 29.84-34.17 49.11-55.62m-39.47 53.83c10.87-12.2 21.03-23.04 43.01-46.01m-40.61 46.16c11.07-12.85 25.33-28.37 39.81-47.46m-30.2 45.6c9.21-11.08 21.45-21.05 36.45-35.85m-36.04 37.78c12.98-13.14 24.54-26.46 34.11-39.47m-21.4 40.32c6.37-8.26 9.53-14.94 27.03-35.07m-27.65 34.86c9.29-13.68 19.55-24.96 27.07-32.61m-18.06 29.96c9.94-5.93 18.18-18.01 22.87-24.26m-22.02 26.46c4.99-5.66 9.19-12.02 21.55-25.1m-10.28 23.33c3-5.52 9.35-13.27 15.2-15.5m-16.42 16.78c5.22-5.31 9.7-10.46 14.8-17.88m-2.49 18.61c2.77-4.5 3.17-8.26 7.6-11.63m-8.34 11.36c2.11-3.91 5.25-6.8 7.63-10.54m2.27 10.23c0.79-0.82 1.26-1.82 1.99-2.52m-1.73 2.34c0.74-0.98 1.36-1.72 2.07-2.21"
              stroke="#fd7e14"/>
        <path d="M1412.49 1065.967c114.47-1.77 230.45-3.29 314.71-3.64m-313.99 2.01c75.43 1.88 149.12.74 314.99-3.27m-.99.07c-39.66-70.43-78.35-142.09-155.66-273.71m155.78 274.64c-38.29-74.18-79.19-145.91-154.65-274.43m.29.3c-43.43 74.5-86.99 148.78-159.75 276.71m160.12-278.17c-58.77 101.64-117.64 203.93-160.47 279.05m.35-.58s0 0 0 0m0 0s0 0 0 0"
              stroke="#d9480f" stroke-width="2"/>
    </g>
    <g fill="#d9480f" font-family="Virgil, Segoe UI Emoji" font-size="58.702" text-anchor="middle">
        <text transform="translate(1500.9 904.17)" x="72.562" y="52.007" style="white-space:pre">Code</text>
        <text transform="translate(1500.9 904.17)" x="72.562" y="127.015" style="white-space:pre">Style</text>
    </g>
    <text transform="translate(1474.9 1166.7)" x="88.5" y="53" fill="#e67700" font-family="Virgil, Segoe UI Emoji"
          font-size="58.702" text-anchor="middle" style="white-space:pre">Tests
    </text>
    <text transform="translate(1354.9 1448.3)" x="208.5" y="53" fill="#5c940d" font-family="Virgil, Segoe UI Emoji"
          font-size="58.702" text-anchor="middle" style="white-space:pre">Dokumentation
    </text>
    <g fill="#0b7285" font-family="Virgil, Segoe UI Emoji" font-size="58.702" text-anchor="middle">
        <text transform="translate(1338.4 1695.4)" x="225" y="52.5" style="white-space:pre">Implementierungs</text>
        <text transform="translate(1338.4 1695.4)" x="225" y="128" style="white-space:pre">Semantik</text>
    </g>
    <text transform="translate(1353.9 2013.8)" x="209.5" y="53" fill="#5f3dc4" font-family="Virgil, Segoe UI Emoji"
          font-size="58.702" text-anchor="middle" style="white-space:pre">API Semantik
    </text>
    <text transform="translate(1894.3 794.33)" y="35" fill="#e67700" font-family="Virgil, Segoe UI Emoji"
          font-size="38.973" style="white-space:pre">Zu stellende Fragen:
    </text>
    <text transform="translate(2402.2 1646.8)" y="35" fill="#0b7285" font-family="Virgil, Segoe UI Emoji"
          font-size="38.973" style="white-space:pre">Zu stellende Fragen:
    </text>
    <text transform="translate(1402.2 425.17)" y="35" fill="#d9480f" font-family="Virgil, Segoe UI Emoji"
          font-size="38.973" style="white-space:pre">Zu stellende Fragen:
    </text>
    <text transform="translate(2085.5 1251.8)" y="35" fill="#5c940d" font-family="Virgil, Segoe UI Emoji"
          font-size="38.973" style="white-space:pre">Zu stellende Fragen:
    </text>
    <text transform="translate(1791.2 2284.2)" y="35" fill="#5f3dc4" font-family="Virgil, Segoe UI Emoji"
          font-size="38.973" style="white-space:pre">Zu stellende Fragen:
    </text>
    <text transform="translate(144 952.83)" x="148" y="35" fill="#c92a2a" font-family="Virgil, Segoe UI Emoji"
          font-size="38.973" text-anchor="middle" style="white-space:pre">Automatisieren!
    </text>
    <g fill="#c92a2a" font-family="Virgil, Segoe UI Emoji" font-size="38.973" text-anchor="middle">
        <text transform="translate(159.5 1655.7)" x="136" y="35.333" style="white-space:pre">Konzentrieren auf</text>
        <text transform="translate(159.5 1655.7)" x="136" y="85.667" style="white-space:pre">Review</text>
        <text transform="translate(159.5 1655.7)" x="136" y="136" style="white-space:pre">Aufgaben!</text>
    </g>
    <g stroke-linecap="round">
        <path d="m1701.7 946.67c10-20 50-82.33 60-120s0-88.33 0-106m-60 226c10-20 50-82.33 60-120s0-88.33 0-106m12.48 27.28c-4.7-10.27-9.39-20.54-12.48-27.28m12.48 27.28c-3.24-7.09-6.49-14.18-12.48-27.28m-7.97 28.92c3-10.88 6-21.77 7.97-28.92m-7.97 28.92c2.07-7.52 4.14-15.03 7.97-28.92"
              fill="none" stroke="#d9480f" stroke-width="4"/>
    </g>
    <g fill="none" stroke="#e67700" stroke-linecap="round" stroke-width="4">
        <path d="m1765.7 1190.7c2-21.67 3-92 12-130s35-81.67 42-98m-54 228c2-21.67 3-92 12-130s35-81.67 42-98m-3.28 29.82c1.11-10.07 2.22-20.15 3.28-29.82m-3.28 29.82c0.97-8.81 1.94-17.62 3.28-29.82"/>
        <path d="m1798 983.41c7.33-7.01 14.65-14.01 21.68-20.74m-21.68 20.74c6.41-6.13 12.81-12.26 21.68-20.74"/>
    </g>
    <g stroke-linecap="round">
        <path d="m1925.7 1454.7s-5.33 14.33 0 0 17-63 32-86 48.33-43.33 58-52m-90 138s-5.33 14.33 0 0 17-63 32-86 48.33-43.33 58-52m-16.12 25.3c3.37-5.28 6.73-10.57 16.12-25.3m-16.12 25.3c6.14-9.64 12.28-19.27 16.12-25.3m-28.61 9.02c5.97-1.89 11.95-3.77 28.61-9.02m-28.61 9.02c10.9-3.44 21.79-6.87 28.61-9.02"
              fill="none" stroke="#5c940d" stroke-width="4"/>
    </g>
    <g fill="none" stroke="#0b7285" stroke-linecap="round" stroke-width="4">
        <path d="m2093.7 1776.7c13.67-12.33 49-59 82-74s96.67-13.33 116-16m-198 90c13.67-12.33 49-59 82-74s96.67-13.33 116-16"/>
        <path d="m2264.2 1698.8c7.97-3.51 15.95-7.02 27.46-12.09m-27.46 12.09c7.94-3.5 15.88-6.99 27.46-12.09m-28.8-8.39c8.36 2.44 16.72 4.87 28.8 8.39m-28.8-8.39c8.33 2.43 16.66 4.85 28.8 8.39"/>
    </g>
    <g stroke-linecap="round">
        <path d="m1625.7 2128.7c4 17 10.33 70.67 24 102s48.33 71.67 58 86m-82-188c4 17 10.33 70.67 24 102s48.33 71.67 58 86m-25.11-16.42 25.11 16.42m-25.11-16.42c5.44 3.56 10.88 7.12 25.11 16.42m-8.68-28.72c3.26 10.81 6.53 21.62 8.68 28.72m-8.68-28.72c1.88 6.23 3.76 12.45 8.68 28.72"
              fill="none" stroke="#5f3dc4" stroke-width="4"/>
    </g>
    <g fill-rule="evenodd" stroke-linecap="round">
        <path d="m1185.6 191.17-105.26-2.91-0.64 121.98 159.05-1.36-49.49-47-4.48-70.18" fill="#82c91e"
              stroke-width="0"/>
        <path d="M1186.4 189.9c-26.49-.82-50.45 1.42-107.45-1.81m105.04 1.97c-32.12-.2-67.15-.58-104.55-.37m-1.72.4c2.62 44.23 3.84 88.55 3.86 122.01m-2.59-121.47c.35 33.77 1.07 67.02 1.83 120.97m-1.08-.46c63.16-2.91 123.39-1.33 159.28-4.12m-158.12 5.71c50.59.83 102.96-.72 157.48-4.13m-.91-1.59c-13.24-12.25-27.68-23.8-51.02-44.18m53.05 45.65c-16.54-13.36-33.91-29.12-52.78-45.43m.49 1.51c-.77-20.38-3.16-40.66-1.81-73.42m2.45 71.68c.35-20.22-.24-39.55-2.38-72.64m-.5.35s0 0 0 0m0 0s0 0 0 0"
              fill="none" stroke="#5c940d" stroke-width="4"/>
    </g>
    <g fill-rule="evenodd" stroke-linecap="round">
        <path d="m1236.5 307.22-1.33-45.1-47.36-0.01 46.42 44.79" fill="#5c940d" stroke-width="0"/>
        <path d="M1235.526 307.749c-.19-12.05 2-24.75-1.91-47.21m2.07 48.53c1.23-13.9.87-25.84-.47-48.22m.41.44c-13.76.92-27.42.74-47.67.18m48.2-2.27c-17.59.97-35.7 2.67-48.7 3.53m-.46 1.06c16.23 15.29 35.26 29.85 47.24 45.08m-45.65-47.44c10.61 10.84 20.88 20.63 47.22 46.83m.35.09s0 0 0 0m0 0s0 0 0 0"
              fill="none" stroke="#5c940d" stroke-width="2"/>
    </g>
    <g stroke-linecap="round">
        <path d="m1182.5 126.07 1188.4-0.04-1.76 130.93-1186.9 2.36" fill="#82c91e" stroke-width="0"/>
        <path d="M1183.426 125.85c303.02 2.47 605.79 1.16 1185.67.03m-1185.14.51c246.31 2.18 493.41 1.98 1185.26-.34m.86-.56c-.17 40.31-.82 83.16-1.57 134.7m-.52-133.44c.18 37.23 1.25 75 1.78 132.5m-.07-.91c-453.04-1.15-906.3-2.49-1185.82-.07m1184.87.98c-237.28 2.79-475.1 2.49-1185.12-.16m.73-.56c1.34-28.8-.72-60.84-.24-132.56m.33 133.89c-1.82-44.54-2.41-87.99-1.2-133.51"
              fill="none" stroke="#5c940d" stroke-width="4"/>
    </g>
    <text transform="rotate(-.134 68120 -615927)" x="348.445" y="50.685" fill="#ffff"
          font-family="Virgil, Segoe UI Emoji" font-size="56.022" text-anchor="middle" style="white-space:pre">Die Code
        Review Pyramide
    </text>
    <g fill-rule="evenodd" stroke-linecap="round">
        <path d="m2475.9 183.79-105.44-2.78 0.76 76.08-41.56 47.02 145.37-3.12 2.76-116.22" fill="#82c91e"
              stroke-width="0"/>
        <path d="M2476.489 187.262c-28.57-4.94-56.41-5.23-107.8-8.16m107.41 6.95c-26.11-1.05-52.51-2.45-105.47-5.7m1.83-.89c-.59 25.94-2.67 51.58-3.38 78.01m.9-76.62c-.11 29.49-.26 60.11.19 76.68m.57 1.71c-10.61 7.76-20.32 19.54-42.8 44.9m41.68-45.93c-15.14 16-29.21 33.26-40.37 44.1m1.88 2.19c27.2-1.18 57.76-1.73 143.16-.55m-144.36-.84c35.87-1.26 72.51-1.68 143.2-.77m-1.36-1.41c3.59-44.46 3.68-93.34 5.18-114.21m-2.31 115.06c-.56-37.47-.87-74.62 1.44-116.82m.5.68s0 0 0 0m0 0s0 0 0 0"
              fill="none" stroke="#5c940d" stroke-width="4"/>
    </g>
    <g fill-rule="evenodd" stroke-linecap="round">
        <path d="m2326.9 301.31 38.34-40.78-37.84 2.65-0.99 36.19" fill="#5c940d" stroke-width="0"/>
        <path d="M2328.7 300.883c7.71-9.93 19.47-22.72 36.53-39.84m-37.74 40.34c14.26-13.96 28.96-29.12 38.99-39.22m-.89 1.11c-12.73-1.12-25.78-.75-38.93 1.05m40.32-1.81c-8.53.21-15.92.32-40.25-.42m1.71.77c-3.58 15.43-3.16 28.12-.15 39.5m-.89-40.14c-.37 10 .52 19.15-.95 37.91m.63.97s0 0 0 0m0 0s0 0 0 0"
              fill="none" stroke="#5c940d" stroke-width="2"/>
    </g>
    <g fill="none" fill-rule="evenodd" stroke-linecap="round">
        <path d="m1080.4 191.83s0 0 0 0 0 0 0 0m-1.32 12.45c5.97-3.85 9.13-9.8 13.19-10.86m-11.72 11.46c2.38-4 5.8-8.74 11.21-13.78m-11.05 26.24c5.91-8.01 13.74-18.33 21.43-25.78m-21.5 25.65c6.12-7.53 12.95-16.53 21.84-26.06m-22.19 39.22c9.46-14.95 20.49-26.03 32.96-40.37m-32.99 39.24c8.69-8.56 15.65-18.52 31.4-38.11m-31.44 50.77c7.88-11.11 20.02-22.84 43.17-48.45m-45.4 49.2c9.98-11.12 19.09-20.29 45.56-50.03m-44.35 60.61c18.38-21.04 38.71-43.8 55.87-61.19m-56.68 63.66c17.05-21.13 33.54-40.46 55.51-65.49m-57.69 77.92c18.05-18.48 32.01-33.39 68.44-79.02m-67.66 79.2c16.54-20.58 34.09-39.12 68.72-78.15m-67.01 90.38c17.92-20.07 31.53-39.77 75.04-91.35m-76.54 89.84c31.52-34.52 62.57-69.68 78.22-87.41m-75.98 102.51c28.84-37.4 58.39-73.22 86.64-104.61m-88.16 102.32c32.71-37.77 66.67-76.22 88.64-100.44m-90.61 114.86c26.87-31 53.84-58.5 99.79-114.48m-97.96 113.56c27.27-31.69 54.29-63.18 98.83-114.41m-96.6 123.29c24.93-28.49 51.21-59.24 102.6-119.06m-101.32 117.11c38.14-41.36 73.97-83.26 102.08-117.68m-92.81 116.67c32.6-35.01 66.1-74.43 94.67-104.48m-92.65 105.97c28.12-33.53 57.93-65.72 91.82-105.36m-81.1 106.51c24.27-31.04 47.56-59.79 81.44-93.53m-83.01 92.54c32.49-37 64.37-72.57 82.11-93.99m-70.53 94.15c27.67-31.35 54.47-64.69 72.77-83.12m-73.98 83.24c25.85-29.15 50.49-58.94 72.19-82.95m-60.35 83.91c15.03-20.84 31.38-38.41 60.65-72.67m-60.56 72.21c18.78-21.3 37.37-44.25 62.15-70.92m-51.82 70.7c20.18-21 36.92-43.41 49.93-58.1m-49.21 56.55c10.98-12.02 23.55-27.87 49.73-57.8m-41.8 56.69c8.81-6.88 17.88-15.28 42.3-44.32m-41.02 46.04c8.62-8.92 16.49-19.29 40.22-45.28m-29.34 46.66c12.24-12.87 20.5-23.07 34.12-40.07m-32.86 39.23c8.41-11.75 19.85-23.88 34.36-41.55m-24.43 39.46c6.99-5.87 13.98-15.35 31.54-33.72m-31.65 34.47c11.44-12.13 24.49-26.25 31.39-35.23m-19.69 34.64c5.78-6.08 14.31-16.82 26.69-28.68m-27.93 30.65c5.01-7.83 12.09-13.39 25.35-30.75m-13.49 30.64c6.73-7.37 13.61-18.23 19.27-23.89m-20.57 22.84c5.2-4.34 9.98-10.27 22.51-24.75m-12.11 25.92c4.43-8.01 8.59-11.69 15.78-21.01m-15.35 20.78c2.35-4.36 6.63-8.93 16.77-19.4m-6.56 21.65c3.49-4.92 8.05-10.52 12.86-16.12m-13.47 13.99c3.06-4.1 7.64-7.14 12.88-14.15m-2.7 13.55c4.66-3.36 6.76-5.67 9.6-8.83m-9.4 9.19c2.81-2.1 5.02-3.82 7.92-8.48"
              stroke="#5c940d"/>
        <path d="M1178.125 189.198c-24.82 1.94-52.48.92-98.56 3.93m99.06-2.32c-34.29.45-69.58.32-97.95 1.44m1.11-.56c-1.54 32.54-2.35 62.16-3.17 115.67m2.42-116.17c-1.64 42.99-2.96 84.47-4.65 119m.77-2.86c36.31-.71 69.88 2.02 156.21 1.01m-156.85.56c61.02.26 121.2-.87 154.62.72m.11-.1c-13.48-13.11-27.85-24.43-51.49-45.04m51.75 45.26c-20.28-18.64-40.89-37.3-49.84-46.88m-.55.68c-1.09-24.74-.82-44.33-2.3-70.88m2.36 69.92c-2.46-16.45-2.77-34.42-1.95-71.44m-.88-.27s0 0 0 0m0 0s0 0 0 0"
              stroke="#0000" stroke-width="2"/>
    </g>
    <g fill="none" fill-rule="evenodd" stroke-linecap="round">
        <path d="m2365.3 191.55s0 0 0 0 0 0 0 0m-0.2 13.27c3.01-3.46 4.05-5.87 12.35-12.83m-11.78 11.07c3.92-4.57 7.13-7.35 9.6-11.01m-9.69 23.21c9.7-10.05 17.08-18.2 21.43-24.4m-21.56 25.73c7.71-8.7 13.96-17.05 21.15-25.71m-20.66 37.22c4.56-8.26 13.03-16.47 30.18-38.28m-31.3 39.3c8.02-9.6 14.6-17.35 32.43-39.02m-33.1 49.33c11.82-11.05 23-22.62 46.74-51.46m-45.98 53.04c10.03-11.89 22-23.71 45.14-50.61m-47.22 62.93c21.63-22.72 41.6-46.08 58.07-63.29m-55.6 63.19c16.97-21.75 35.74-42.33 53.76-64.2m-54.65 78.65c16.32-20.82 36.21-42.93 64.22-78.83m-64.04 76.66c24.16-27.89 50.37-56.46 65.09-76.51m-88.39 117.83c27.22-35.53 54.67-67.66 98.74-115.84m-100.25 114.68c37.21-40.24 73.42-82.38 102.68-116.16m-89.75 116.07c31.8-40.96 65.08-78.93 98.31-114.98m-100.6 113.88c29.38-32.51 57.83-64.1 102.48-115.95m-90.22 116.42c20.51-23.58 44.49-52 101.27-116.57m-102.19 117.69c27.57-33.32 55.43-66.97 101.33-117.6m-89.33 115.03c31.85-34.2 61.34-69.44 99.05-112.69m-101.01 115.22c21.54-25.08 42.65-49.66 100.43-115.78m-90.77 113.85c30.53-30.91 56.71-61.35 90.4-101.34m-88.9 102.2c23.24-27.06 47.9-54.37 89.51-102.42m-77.7 102.87c22.33-30.46 47.02-56.91 78.87-88.44m-79.86 87.71c16.33-18.8 34.1-38.89 78.42-88.53m-67.6 89.22c20.27-23.69 38.5-44.31 66.72-77.04m-66.6 76.15c15.58-18.18 30.56-35.75 66.89-77.6m-55.27 77.88c15.36-20.31 34.01-42.07 54.7-64.5m-55.15 65.11c17.97-20.68 34.27-39.87 56.44-64.55m-46 65.79c15.99-19.73 30.56-37.8 46.04-54.87m-47.59 52.62c14.74-14.61 25.64-29.24 46.33-52.39m-36.78 51.8c13.51-11.41 25.5-23.16 35.83-39.99m-34.1 40.87c8.99-9.91 16.52-19.54 34.87-39.03m-22.83 40.77c4.95-8.95 12.65-16.96 23.65-28.19m-24.49 25.75c5.3-5.16 10.23-11.95 22.17-26.21m-13.51 27.65c6.26-4.92 9.13-9.65 14.13-13.13m-13.42 12.43c6.12-4.37 10.49-9.82 12.69-14.15"
              stroke="#5c940d"/>
        <path d="M2469.694 188.774c-30.38-1.42-62.96.4-102.94 3.82m104.55-3.51c-27 .49-54.18 1.34-105.43 2.08m-.56-.1c.22 30.62-1.89 63.09-3.07 78.34m2.57-77.07c.4 18.86-.54 36.43.27 75.22m-2.86 1.2c-9.3 9.9-16.5 25.53-25.91 34.81m27.48-35.42c-7.77 10.25-17.69 20.9-26.19 33.41m-.1.63c46.53.56 95.27-1.1 131.9 1.12m-131.68-1.99c38.84.51 77.74 1.94 130.06.14m.69-.74c-.81-22.02 2.72-44.95 4.68-113.6m-5.64 113.49c2.66-44.27 3.11-87.38 4.12-113.11m-.27.89s0 0 0 0m0 0s0 0 0 0"
              stroke="#0000" stroke-width="2"/>
    </g>
    <path d="M128.931 1640.712c98.42-.11 199.91.99 343 .9m-342.71.38c112.15-1.82 225.44-2.44 343.98-1.46m.67.27c-1.62 54.8-3.14 107-2.31 144.79m1.37-143.71c-1.33 49.8-.08 100.7.4 144.88m-2.21-2.7c-8.62 14.3-21.78 25.82-32.93 37.59m34.97-36.29c-10.56 8.93-18.88 18.96-34.9 36.27m-.8-.19c1.42-10.78 1.11-17.17-.97-36.28m1.35 35.12c-.68-7.14-.98-16.7-2.31-36.2m-.76 1.1c13.68.2 25.28-1.54 37.42-1.59m-35.45.72c10.9 1.62 23.67-.14 32.59 1.3m.31-1.76c-8.96 7.45-15.32 17.08-33.44 39.19m34.43-37.66c-13.98 13.6-27.21 28.3-34.17 37.67m1.03-1.97c-81.74 1.36-165.63 1.21-309.49-.6m308.75 2.09c-90.74-.09-179.33-.26-309.48-1.33m.67.41c-1.08-44.63 2.9-90.75 2.51-181.32m-2.3 179.54c-.48-66.06-.51-134.16 2.11-178.06"
          fill="none" stroke="#000" stroke-linecap="round" stroke-width="2"/>
    <g fill="none" stroke="#364fc7" stroke-linecap="round" stroke-width="4">
        <path d="m668.89 772.28c0.74 473.86 1.49 947.72 2.22 1416.1m-2.22-1416.1c0.59 374.16 1.17 748.32 2.22 1416.1m8.08-1387.9c-3.44-9.42-6.89-18.85-10.3-28.17m10.3 28.17-10.3-28.17m-10.22 28.21 10.22-28.21m-10.22 28.21c2.7-7.46 5.4-14.91 10.22-28.21m-8.08 1387.9c3.45 9.42 6.89 18.85 10.3 28.17m-10.3-28.17 10.3 28.17"/>
        <path d="m681.33 2160.2-10.22 28.21m10.22-28.21c-2.7 7.46-5.4 14.91-10.22 28.21"/>
    </g>
    <path d="m594.98 779.5c-5.09 1.07-22.98 2.13-30.56 6.4-7.57 4.26-11.84 11.48-14.92 19.18s-2.96 0-3.55 27 0 112.51 0 135.01m49.03-187.59c-5.09 1.07-22.98 2.13-30.56 6.4-7.57 4.26-11.84 11.48-14.92 19.18s-2.96 0-3.55 27 0 112.51 0 135.01m-0.71-2e-3c-3.79 2.84-18.95 14.21-22.74 17.05m22.74-17.05c-3.79 2.84-18.95 14.21-22.74 17.05m68.017 210.14c-4.636-1.127-20.932-2.297-27.825-6.763-6.894-4.475-10.756-12.02-13.526-20.05-2.78-8.03-2.7-0.01-3.136-28.152-0.436-28.132 0.435-117.24 0.522-140.69m43.965 195.66c-4.636-1.128-20.932-2.298-27.825-6.764-6.894-4.475-10.756-12.02-13.526-20.05-2.78-8.03-2.7-0.01-3.136-28.152-0.436-28.132 0.435-117.24 0.522-140.69m-23.657-13.071c3.93 1.96 19.63 9.78 23.56 11.73m-23.56-11.73c3.93 1.96 19.63 9.78 23.56 11.73m-7.12 701.74c-3.79 2.84-18.95 14.21-22.74 17.05m22.74-17.05c-3.79 2.84-18.95 14.21-22.74 17.05m0.395 1.418c3.93 1.96 19.63 9.78 23.56 11.73m-23.56-11.73c3.93 1.96 19.63 9.78 23.56 11.73m51.952-488.73c-4.44 0.56-20 1.67-26.67 3.33-6.66 1.67-10 3.89-13.33 6.67s-4.72 5-6.67 10c-1.94 5-4.44 8.06-5 20-0.55 11.94 1.39-17.78 1.67 51.67 0.28 69.44 0 304.16 0 365m50-456.67c-4.44 0.56-20 1.67-26.67 3.33-6.66 1.67-10 3.89-13.33 6.67s-4.72 5-6.67 10c-1.94 5-4.44 8.06-5 20-0.55 11.94 1.39-17.78 1.67 51.67 0.28 69.44 0 304.16 0 365m44.258 488.68c-4.001-0.55-18.004-1.623-24.009-3.267-5.994-1.654-9-3.867-12.007-6.639s-4.263-4.988-6.026-9.984c-1.764-4.995-4.022-8.05-4.553-19.988-0.531-11.939 1.297 17.777 1.364-51.674 0.067-69.44-0.8-304.16-0.96-365m46.191 456.55c-4.001-0.55-18.004-1.623-24.009-3.267-5.994-1.654-9-3.867-12.007-6.639s-4.263-4.988-6.026-9.984c-1.764-4.995-4.022-8.05-4.553-19.988-0.531-11.939 1.297 17.777 1.364-51.674 0.067-69.44-0.8-304.16-0.96-365"
          fill="none" stroke="#c92a2a" stroke-linecap="round" stroke-width="4"/>
    <g fill="#364fc7" font-family="Virgil, Segoe UI Emoji" font-size="38.973" text-anchor="middle">
        <text transform="translate(542.25 2253.7)" x="131.5" y="35.333" style="white-space:pre">Großer Aufwand</text>
        <text transform="translate(542.25 2253.7)" x="131.5" y="85.667" style="white-space:pre">für später</text>
        <text transform="translate(542.25 2253.7)" x="131.5" y="136" style="white-space:pre">Änderungen</text>
    </g>
    <g fill="#364fc7" font-family="Virgil, Segoe UI Emoji" font-size="38.973" text-anchor="middle">
        <text transform="translate(524.42 576.5)" x="136" y="35.333" style="white-space:pre">Kleiner Aufwand</text>
        <text transform="translate(524.42 576.5)" x="136" y="85.667" style="white-space:pre">für später Änderungen
        </text>
    </g>
</svg>
